<?xml version="1.0" encoding="utf-8"?>
<!-- Generator: Adobe Illustrator 23.0.3, SVG Export Plug-In . SVG Version: 6.00 Build 0)  -->
<svg version="1.1" id="Layer_1" xmlns="http://www.w3.org/2000/svg" xmlns:xlink="http://www.w3.org/1999/xlink" x="0px" y="0px"
	 viewBox="0 0 100 100" style="enable-background:new 0 0 100 100;" xml:space="preserve">
<style type="text/css">
	.st0{fill:#EE3E54;}
	.st1{fill:#F1BC19;}
	.st2{fill:#FCE0A2;}
	.st3{fill:#FBCD59;}
	.st4{fill:#FFFFFF;}
	.st5{fill:#9F8066;}
	.st6{fill:#BD977C;}
	.st7{fill:#472B29;}
	.st8{fill:#836F61;}
	.st9{fill:#1F212B;}
</style>
<path class="st0" d="M13,27c-1.1,0-2,0.9-2,2s0.9,2,2,2s2-0.9,2-2S14.1,27,13,27z"/>
<path class="st1" d="M77,12c-0.6,0-1,0.4-1,1s0.4,1,1,1s1-0.4,1-1S77.6,12,77,12z"/>
<path class="st2" d="M50,13c-20.4,0-37,16.6-37,37s16.6,37,37,37s37-16.6,37-37S70.4,13,50,13z"/>
<path class="st1" d="M83,11c-2.2,0-4,1.8-4,4s1.8,4,4,4s4-1.8,4-4S85.2,11,83,11z"/>
<path class="st0" d="M87,22c-1.1,0-2,0.9-2,2s0.9,2,2,2s2-0.9,2-2S88.1,22,87,22z"/>
<path class="st3" d="M81,74c-1.1,0-2,0.9-2,2s0.9,2,2,2s2-0.9,2-2S82.1,74,81,74z M15,59c-2.2,0-4,1.8-4,4s1.8,4,4,4s4-1.8,4-4
	S17.2,59,15,59z"/>
<path class="st0" d="M25,85c-1.1,0-2,0.9-2,2s0.9,2,2,2s2-0.9,2-2S26.1,85,25,85z"/>
<path class="st4" d="M21.5,34c-1.4,0-2.5,1.1-2.5,2.5s1.1,2.5,2.5,2.5s2.5-1.1,2.5-2.5S22.9,34,21.5,34z"/>
<path class="st1" d="M21,66c-0.6,0-1,0.4-1,1s0.4,1,1,1s1-0.4,1-1S21.6,66,21,66z"/>
<path class="st4" d="M80,33c-0.6,0-1,0.4-1,1s0.4,1,1,1s1-0.4,1-1S80.6,33,80,33z"/>
<path class="st5" d="M74.8,54c-0.8-5.1-2.5-11.7-4.9-15.5c1.5-1.1,3.1-2.9,3.1-5.5c0-5-5-6-8-4c-1.4,0.9-3,1-3.7,1
	c-3.3-1.9-7.1-3-11.3-3c-4.2,0-7.9,1.1-11.1,3.1l0-0.1c0,0-2.1,0.2-4-1c-3-2-8-1-8,4c0,2.8,1.9,4.7,3.5,5.8C28.2,42.5,26,49,25.4,54
	C24,65,31,70,41.2,73.2c1.8,2.8,5,3.8,7.9,3.8h0.8c3,0,6.1-2,8-4C68,71,76.5,64.9,74.8,54z"/>
<path class="st6" d="M37.6,50c-1,0.9-1.7,2.8,0.6,4.8c2.2,1.9,4.7,1.2,5.7,0.1C46.6,52.2,40.7,48,37.6,50z"/>
<path class="st6" d="M62.1,50c1,0.9,1.7,2.8-0.6,4.8c-2.2,1.9-4.7,1.2-5.7,0.1C53.1,52.2,59.1,48,62.1,50z"/>
<path class="st6" d="M48.9,77h1.2c-3.7,0-8.8-2.5-8.4-5.3l-0.2-1.2c-0.3-1.7-0.3-3.5,0.1-5.2l1.6-6.8c0.3-2.5,3-4.5,6.3-4.5l0,0
	c3.3,0,6.1,1.9,6.3,4.5l1.6,6.8c0.4,1.7,0.4,3.5,0.1,5.2l-0.2,1.2C57.7,74.5,52.6,77,48.9,77z"/>
<path class="st7" d="M50.1,28.4c3.8,0,7.3,1,10.6,2.8c0.2,0.1,0.4,0.2,0.7,0.2l0.1,0c0.9,0,2.7-0.2,4.3-1.3c0.7-0.5,1.6-0.7,2.5-0.7
	c0.8,0,3.4,0.3,3.4,3.6c0,1.6-0.9,3.1-2.5,4.3c-0.6,0.4-0.8,1.3-0.4,1.9c2.3,3.7,4,10.2,4.7,15c2,12.9-11.6,16.6-15.8,17.5
	c-0.4,0.1-0.7,0.3-0.9,0.6c-1.7,2.6-4.3,4.3-6.8,4.3h-0.8c-2.4,0-5.1-1.7-6.8-4.2c-0.2-0.3-0.5-0.5-0.9-0.6
	c-7.5-1.6-16.1-6-14.7-17.7c0.6-4.7,2.7-11,4.9-14.7c0.4-0.6,0.2-1.5-0.4-1.9c-1.9-1.3-2.9-2.8-2.9-4.6c0-1.2,0.3-2.1,1-2.7
	c0.6-0.5,1.4-0.8,2.4-0.8c0.9,0,1.7,0.3,2.5,0.7c1.6,1.1,3.4,1.3,4.3,1.3c0,0,0,0,0.1,0c0.1,0,0.2,0,0.3,0c0.3,0,0.5-0.1,0.7-0.2
	C42.8,29.4,46.3,28.4,50.1,28.4 M50.1,27c-4.2,0-7.9,1.1-11.1,3.1l0-0.1c0,0-0.2,0-0.4,0c-0.7,0-2.2-0.1-3.6-1c-1-0.6-2.1-1-3.2-1
	c-2.4,0-4.8,1.5-4.8,5c0,2.8,1.9,4.7,3.5,5.8C28.2,42.5,26,49,25.4,54C24,65,31,71,41.2,73.2c1.8,2.8,5,4.8,7.9,4.8h0.8
	c3,0,6.1-2,8-5C68,71,76.5,64.9,74.8,54c-0.8-5.1-2.5-11.7-4.9-15.5c1.5-1.1,3.1-2.9,3.1-5.5c0-3.4-2.3-5-4.8-5
	c-1.1,0-2.3,0.3-3.2,1c-1.3,0.9-2.8,1-3.5,1c0,0-0.1,0-0.1,0C58,28.1,54.3,27,50.1,27L50.1,27z"/>
<path class="st8" d="M54,68.4c0,2.1-2,3.3-4.5,3.3S45,70.6,45,68.4s2-4.4,4.5-4.4S54,66.3,54,68.4z"/>
<path class="st7" d="M54,69.3c0,1.6-2,2.4-4.5,2.4S45,70.9,45,69.3s2-3.3,4.5-3.3S54,67.7,54,69.3z"/>
<ellipse class="st7" cx="41.5" cy="53.5" rx="2.5" ry="1.5"/>
<ellipse class="st7" cx="58.5" cy="53.5" rx="2.5" ry="1.5"/>
<path class="st7" d="M49.8,48.2c-0.1,0-0.1,0-0.2-0.1c-0.1-0.1-0.1-0.3,0-0.4c0.6-0.6,0.9-2.5,0-4.1c-0.1-0.1,0-0.3,0.1-0.3
	c0.1-0.1,0.3,0,0.3,0.1c1.1,1.8,0.7,3.9,0,4.7C50,48.2,49.9,48.2,49.8,48.2z"/>
<path class="st7" d="M49.3,42.2c-0.1,0-0.2-0.1-0.3-0.2c-0.1-1.1,0.3-2.2,0.8-2.9c0.1-0.1,0.2-0.1,0.4,0c0.1,0.1,0.1,0.2,0,0.4
	C49.8,40,49.5,41,49.6,42C49.6,42.1,49.5,42.2,49.3,42.2C49.4,42.2,49.4,42.2,49.3,42.2z"/>
<path class="st7" d="M46.4,46c-0.1,0-0.2,0-0.2-0.1c-0.1-0.1-0.1-0.3,0.1-0.3c0.5-0.4,1-1.3,1-2.5c0-0.1,0.1-0.3,0.2-0.3
	c0.2,0,0.3,0.1,0.3,0.2c0,1.2-0.5,2.4-1.2,2.9C46.5,46,46.4,46,46.4,46z"/>
<path class="st7" d="M47.1,41.7c-0.1,0-0.2-0.1-0.2-0.2c-0.2-0.5-0.3-1-0.3-1.5c0-0.1,0.1-0.2,0.3-0.2c0.1,0,0.2,0.1,0.2,0.3
	c0,0.5,0,0.9,0.2,1.3C47.4,41.5,47.3,41.6,47.1,41.7C47.2,41.7,47.1,41.7,47.1,41.7z"/>
<path class="st7" d="M47.2,38.8C47.2,38.8,47.1,38.8,47.2,38.8c-0.2-0.1-0.3-0.2-0.2-0.3c0.2-0.6,0.6-1.1,1-1.5
	c0.1-0.1,0.3-0.1,0.4,0c0.1,0.1,0.1,0.3,0,0.4c-0.3,0.3-0.6,0.7-0.8,1.3C47.4,38.7,47.3,38.8,47.2,38.8z"/>
<path class="st7" d="M53.6,46.1c0,0-0.1,0-0.1,0c-0.1-0.1-0.1-0.2-0.1-0.3c0.3-0.4,0.4-1,0.3-1.7c0-0.1,0.1-0.3,0.2-0.3
	c0.1,0,0.3,0.1,0.3,0.2c0.1,0.8-0.1,1.5-0.4,2C53.7,46,53.6,46.1,53.6,46.1z"/>
<path class="st7" d="M53.5,42.8c-0.1,0-0.2-0.1-0.2-0.1c-0.2-0.4-0.4-0.7-0.6-1c-1.1-1.2-1.2-3.4-0.5-4.7c0.1-0.1,0.2-0.2,0.3-0.1
	c0.1,0.1,0.2,0.2,0.1,0.3c-0.6,1.1-0.5,3,0.4,4.1c0.3,0.3,0.5,0.7,0.7,1.1c0.1,0.1,0,0.3-0.1,0.3C53.6,42.8,53.6,42.8,53.5,42.8z"/>
<circle class="st4" cx="41.5" cy="52.5" r="0.5"/>
<circle class="st4" cx="58.5" cy="52.5" r="0.5"/>
<path class="st7" d="M49.3,75.5c-0.9,0-1.7-0.1-2.6-0.3L41.9,74l0.2-1l4.9,1.2c1.6,0.4,3.4,0.4,5-0.1l5.4-1.6l0.3,1l-5.4,1.6
	C51.3,75.4,50.3,75.5,49.3,75.5z"/>
<path class="st7" d="M34.5,37.8c-0.1,0-0.1,0-0.2-0.1c-0.9-0.9-1.6-1.9-2.2-2.9c-0.1-0.1,0-0.3,0.1-0.3s0.3,0,0.3,0.1
	c0.5,1,1.2,1.9,2.1,2.8c0.1,0.1,0.1,0.3,0,0.4C34.6,37.7,34.6,37.8,34.5,37.8z"/>
<path class="st7" d="M31.8,33.5c-0.1,0-0.2-0.1-0.2-0.2c-0.3-1.1-0.3-1.8-0.3-1.8c0-0.1,0.1-0.3,0.3-0.3l0,0c0.1,0,0.3,0.1,0.3,0.2
	c0,0,0,0.7,0.3,1.7C32.1,33.3,32,33.4,31.8,33.5C31.9,33.5,31.9,33.5,31.8,33.5z"/>
<path class="st7" d="M66.5,37.8c-0.1,0-0.1,0-0.2-0.1c-0.1-0.1-0.1-0.3,0-0.4c2.9-2.9,2.9-5.8,2.9-5.8c0-0.1,0.1-0.2,0.3-0.2l0,0
	c0.1,0,0.3,0.1,0.3,0.3c0,0.1,0,3.1-3.1,6.2C66.6,37.7,66.6,37.8,66.5,37.8z"/>
<path class="st7" d="M56.9,72.6c0,0-0.1,0-0.1,0c-0.1-0.1-0.2-0.2-0.1-0.3c0.4-0.8,0.8-1.7,0.8-3.4c0-0.1,0.1-0.2,0.3-0.2
	c0.1,0,0.2,0.1,0.2,0.3c0,1.8-0.4,2.8-0.8,3.6C57.1,72.6,57,72.6,56.9,72.6z"/>
<path class="st7" d="M57.7,67.5c-0.1,0-0.2-0.1-0.2-0.2c-0.1-1.1-0.8-4.2-1.4-6.5c0-0.1,0-0.3,0.2-0.3c0.1,0,0.3,0,0.3,0.2
	c0.6,2.4,1.3,5.5,1.4,6.6C57.9,67.3,57.8,67.4,57.7,67.5C57.7,67.5,57.7,67.5,57.7,67.5z"/>
<path class="st7" d="M55.8,59.1c-0.1,0-0.2-0.1-0.2-0.2c-0.6-2.2-1.5-3.1-1.5-3.1c-0.1-0.1-0.1-0.3,0-0.4s0.2-0.1,0.4,0
	c0,0,1,0.9,1.7,3.3C56.1,58.9,56,59,55.8,59.1C55.9,59.1,55.9,59.1,55.8,59.1z"/>
<g>
	<path class="st7" d="M41.9,72.6c-0.1,0-0.2-0.1-0.2-0.1c-0.6-1.3-1-2.7-0.8-5.3c0-0.1,0.1-0.2,0.3-0.2c0.1,0,0.2,0.1,0.2,0.3
		c-0.2,2.5,0.1,3.8,0.7,5c0.1,0.1,0,0.3-0.1,0.3C42,72.6,42,72.6,41.9,72.6z"/>
</g>
<g>
	<path class="st7" d="M41.6,65.4C41.5,65.4,41.5,65.4,41.6,65.4c-0.2,0-0.3-0.2-0.2-0.3c0.3-1.3,0.6-3,1.1-4.6
		c0-0.1,0.2-0.2,0.3-0.2s0.2,0.2,0.2,0.3c-0.4,1.7-0.8,3.4-1.1,4.6C41.8,65.3,41.7,65.4,41.6,65.4z"/>
</g>
<g>
	<path class="st9" d="M50,69c0,0.6,0.4,0.9,0.8,0.9s1.2-0.2,1.2-0.8s-1.1-1.5-1.6-1.5S50,68.4,50,69z"/>
</g>
<g>
	<path class="st9" d="M49,69c0,0.6-0.4,0.9-0.8,0.9c-0.5,0-1.2-0.2-1.2-0.8s1.1-1.5,1.6-1.5S49,68.4,49,69z"/>
</g>
<g>
	<path class="st7" d="M61.8,69c-0.1,0-0.2-0.1-0.2-0.2c0-0.1,0-0.3,0.1-0.3c2.3-0.9,4.3-2,5.8-3.3c0.1-0.1,0.3-0.1,0.4,0
		c0.1,0.1,0.1,0.3,0,0.4C66.2,67,64.2,68.1,61.8,69C61.8,69,61.8,69,61.8,69z"/>
</g>
<g>
	<path class="st7" d="M69,64.3c-0.1,0-0.1,0-0.2-0.1c-0.1-0.1-0.1-0.2,0-0.4c1.6-1.9,2.5-4.2,2.7-6.8c0-0.1,0.1-0.2,0.3-0.2
		c0.1,0,0.2,0.1,0.2,0.3c-0.2,2.7-1.2,5.1-2.9,7.1C69.1,64.3,69.1,64.3,69,64.3z"/>
</g>
<g>
	<path class="st7" d="M71.8,55.1c-0.1,0-0.2-0.1-0.2-0.2c-0.2-3-1.3-5.3-1.3-5.3c-0.1-0.1,0-0.3,0.1-0.3c0.1-0.1,0.3,0,0.3,0.1
		c0,0.1,1.1,2.4,1.3,5.5C72.1,55,72,55.1,71.8,55.1C71.8,55.1,71.8,55.1,71.8,55.1z"/>
</g>
<g>
	<path class="st7" d="M38.8,69.7C38.7,69.7,38.7,69.6,38.8,69.7c-2.5-0.9-4.5-2-6-3.4c-0.1-0.1-0.1-0.2,0-0.4c0.1-0.1,0.3-0.1,0.4,0
		c1.5,1.3,3.5,2.4,5.8,3.3c0.1,0,0.2,0.2,0.1,0.3C38.9,69.6,38.9,69.7,38.8,69.7z"/>
</g>
<g>
	<path class="st7" d="M31.5,64.9c-0.1,0-0.1,0-0.2-0.1c-1.7-2-2.6-4.4-2.9-7.1c0-0.1,0.1-0.3,0.2-0.3c0.1,0,0.3,0.1,0.3,0.2
		c0.2,2.6,1.1,4.9,2.7,6.8c0.1,0.1,0.1,0.3,0,0.4C31.6,64.9,31.6,64.9,31.5,64.9z"/>
</g>
</svg>
