<?xml version="1.0" encoding="utf-8"?>
<!-- Generator: Adobe Illustrator 23.0.3, SVG Export Plug-In . SVG Version: 6.00 Build 0)  -->
<svg version="1.1" id="Layer_1" xmlns="http://www.w3.org/2000/svg" xmlns:xlink="http://www.w3.org/1999/xlink" x="0px" y="0px"
	 viewBox="0 0 100 100" style="enable-background:new 0 0 100 100;" xml:space="preserve">
<style type="text/css">
	.st0{fill:#EE3E54;}
	.st1{fill:#F1BC19;}
	.st2{fill:#FCE0A2;}
	.st3{fill:#FBCD59;}
	.st4{fill:#FFFFFF;}
	.st5{fill:#C0D078;}
	.st6{fill:#472B29;}
	.st7{fill:#BD977C;}
	.st8{fill:#F9E65C;}
</style>
<path class="st0" d="M13,27c-1.1,0-2,0.9-2,2s0.9,2,2,2s2-0.9,2-2S14.1,27,13,27z"/>
<path class="st1" d="M77,12c-0.6,0-1,0.4-1,1s0.4,1,1,1s1-0.4,1-1S77.6,12,77,12z"/>
<path class="st2" d="M50,13c-20.4,0-37,16.6-37,37s16.6,37,37,37s37-16.6,37-37S70.4,13,50,13z"/>
<path class="st1" d="M83,11c-2.2,0-4,1.8-4,4s1.8,4,4,4s4-1.8,4-4S85.2,11,83,11z"/>
<path class="st0" d="M87,22c-1.1,0-2,0.9-2,2s0.9,2,2,2s2-0.9,2-2S88.1,22,87,22z"/>
<path class="st3" d="M81,74c-1.1,0-2,0.9-2,2s0.9,2,2,2s2-0.9,2-2S82.1,74,81,74z M15,59c-2.2,0-4,1.8-4,4s1.8,4,4,4s4-1.8,4-4
	S17.2,59,15,59z"/>
<path class="st0" d="M25,85c-1.1,0-2,0.9-2,2s0.9,2,2,2s2-0.9,2-2S26.1,85,25,85z"/>
<path class="st4" d="M17.5,48c-1.4,0-2.5,1.1-2.5,2.5s1.1,2.5,2.5,2.5s2.5-1.1,2.5-2.5S18.9,48,17.5,48z"/>
<path class="st1" d="M21,66c-0.6,0-1,0.4-1,1s0.4,1,1,1s1-0.4,1-1S21.6,66,21,66z"/>
<path class="st4" d="M80,33c-0.6,0-1,0.4-1,1s0.4,1,1,1s1-0.4,1-1S80.6,33,80,33z"/>
<g>
	<path class="st5" d="M63.3,75.3c-3.2,0-9.2-3.1-11.8-11.3l0.7-12.5c3.7-10.6,16.6-21.8,21.4-21.8c2.5,0,3.7,1.2,3.7,3.8
		c0,19.3-2.3,22.4-16.2,22.4v1.4c8.9,0,11.1,6.6,11.1,7.5C72.1,70.5,64.9,75.3,63.3,75.3z M36.7,75.3c-1.7,0-8.9-4.8-8.9-10.5
		c0-0.9,2.2-7.5,11.1-7.5v-1.4c-14,0-16.2-3.1-16.2-22.4c0-2.5,1.2-3.8,3.7-3.8c4.8,0,17.7,11.2,21.4,21.8L48.6,64
		C45.9,72.2,39.9,75.3,36.7,75.3z"/>
	<path class="st6" d="M73.6,30.4c2.1,0,3,0.9,3,3.1c0,19.9-2.7,21.7-15.5,21.7V58c8.2,0,10.4,6,10.4,6.8c0,5.2-6.7,9.8-8.2,9.8
		c-3,0-8.6-2.9-11.1-10.7l0.7-12.2C56.6,41,69.4,30.4,73.6,30.4 M26.4,30.4c4.2,0,16.9,10.6,20.7,21.3l0.7,12.2
		c-2.5,7.8-8.1,10.7-11.1,10.7c-1.5,0-8.2-4.6-8.2-9.8c0-0.8,2.2-6.8,10.4-6.8v-2.8c-12.8,0-15.5-1.9-15.5-21.7
		C23.4,31.3,24.3,30.4,26.4,30.4 M73.6,29c-5.2,0-18.3,11.5-22.1,22.4l-0.7,12.7C53.4,72.6,59.6,76,63.3,76c2.2,0,9.6-5.2,9.6-11.2
		c0-1.5-2.7-8.2-11.8-8.2c14.4,0,16.9-3.3,16.9-23.1C78,30.2,76.1,29,73.6,29L73.6,29z M26.4,29c-2.5,0-4.4,1.2-4.4,4.5
		c0,19.8,2.6,23.1,16.9,23.1c-9.1,0-11.8,6.7-11.8,8.2c0,6,7.4,11.2,9.6,11.2c3.7,0,9.9-3.4,12.5-11.9l-0.7-12.7
		C44.8,40.5,31.6,29,26.4,29L26.4,29z"/>
	<path class="st7" d="M50,53C50,53,50,53,50,53C50,53,50,53,50,53c-1.8,0-3.2,1.3-3,2.8l1.6,14.1c0.1,0.6,0.7,1.1,1.4,1.1
		s1.3-0.5,1.4-1.1L53,55.8C53.2,54.3,51.8,53,50,53z"/>
	<path class="st6" d="M50,71.5c-1,0-1.8-0.7-1.9-1.5l-1.6-14.1c-0.1-0.8,0.2-1.6,0.7-2.2c0.7-0.7,1.6-1.2,2.7-1.2H50
		c1.1,0,2,0.4,2.7,1.2c0.6,0.6,0.8,1.4,0.7,2.2L51.9,70C51.8,70.8,51,71.5,50,71.5z M50,53.5c-0.8,0-1.5,0.3-2,0.8
		c-0.4,0.4-0.5,0.9-0.5,1.4l1.6,14.1c0,0.4,0.4,0.6,0.9,0.6s0.8-0.3,0.9-0.6l1.6-14.1c0.1-0.5-0.1-1-0.5-1.4
		C51.5,53.8,50.8,53.5,50,53.5C50,53.5,50,53.5,50,53.5z"/>
	<circle class="st7" cx="50" cy="50" r="3"/>
	<path class="st6" d="M50,53.5c-1.9,0-3.5-1.6-3.5-3.5s1.6-3.5,3.5-3.5s3.5,1.6,3.5,3.5S51.9,53.5,50,53.5z M50,47.5
		c-1.4,0-2.5,1.1-2.5,2.5s1.1,2.5,2.5,2.5s2.5-1.1,2.5-2.5S51.4,47.5,50,47.5z"/>
	<circle class="st7" cx="50" cy="46" r="2"/>
	<path class="st6" d="M50,48.5c-1.4,0-2.5-1.1-2.5-2.5s1.1-2.5,2.5-2.5s2.5,1.1,2.5,2.5S51.4,48.5,50,48.5z M50,44.5
		c-0.8,0-1.5,0.7-1.5,1.5s0.7,1.5,1.5,1.5s1.5-0.7,1.5-1.5S50.8,44.5,50,44.5z"/>
	<path class="st8" d="M38,63c-1.7,0-3,1.3-3,3s1.3,3,3,3l0,0c1.7,0,3-1.3,3-3S39.7,63,38,63z"/>
	<path class="st6" d="M38,69.5c-1.9,0-3.5-1.6-3.5-3.5s1.6-3.5,3.5-3.5s3.5,1.6,3.5,3.5S39.9,69.5,38,69.5z M38,63.5
		c-1.4,0-2.5,1.1-2.5,2.5s1.1,2.5,2.5,2.5s2.5-1.1,2.5-2.5S39.4,63.5,38,63.5z"/>
	<path class="st8" d="M62,63c-1.7,0-3,1.3-3,3s1.3,3,3,3l0,0c1.7,0,3-1.3,3-3S63.7,63,62,63z"/>
	<path class="st6" d="M62,69.5c-1.9,0-3.5-1.6-3.5-3.5s1.6-3.5,3.5-3.5s3.5,1.6,3.5,3.5S63.9,69.5,62,69.5z M62,63.5
		c-1.4,0-2.5,1.1-2.5,2.5s1.1,2.5,2.5,2.5s2.5-1.1,2.5-2.5S63.4,63.5,62,63.5z"/>
	<g>
		<path class="st6" d="M37.6,54c-2.2,0-5.3-0.1-8-1.4c-1.9-0.9-3.2-3.5-3.9-7.6c0-0.1,0.1-0.3,0.2-0.3c0.1,0,0.3,0.1,0.3,0.2
			c0.7,4,1.9,6.4,3.6,7.2c2.9,1.4,6.2,1.4,8.5,1.4l0.6,0c0.1,0,0.3,0.1,0.3,0.3S39,54,38.9,54l-0.6,0C38.1,54,37.9,54,37.6,54z"/>
		<path class="st6" d="M25.7,43.2c-0.1,0-0.2-0.1-0.2-0.2c-0.1-1.1-0.2-2.4-0.3-3.7c0-0.1,0.1-0.3,0.2-0.3c0.2,0,0.3,0.1,0.3,0.2
			c0,1.3,0.1,2.6,0.2,3.7C26,43,25.9,43.1,25.7,43.2C25.7,43.2,25.7,43.2,25.7,43.2z"/>
		<path class="st6" d="M39.8,43.3c-0.1,0-0.1,0-0.2-0.1c-3.2-3.7-6.6-6.7-10.1-8.9c-1.9-1.1-2.8-1.1-3.2-0.8
			c-0.6,0.3-0.6,1.1-0.6,1.3l0,0.6c0,0.5,0,1.1,0,1.8c0,0.1-0.1,0.3-0.2,0.3h0c-0.1,0-0.2-0.1-0.3-0.2c0-0.7,0-1.4,0-1.8l0-0.6
			c0-0.3,0.1-1.3,0.9-1.8c0.8-0.5,2.1-0.2,3.7,0.8c3.5,2.2,7,5.2,10.2,9c0.1,0.1,0.1,0.3,0,0.4C39.9,43.2,39.9,43.3,39.8,43.3z"/>
		<path class="st6" d="M43.3,47.7c-0.1,0-0.2,0-0.2-0.1c-0.6-0.9-1.3-1.8-2-2.7c-0.1-0.1-0.1-0.3,0-0.4c0.1-0.1,0.3-0.1,0.4,0
			c0.7,0.9,1.4,1.8,2.1,2.8c0.1,0.1,0.1,0.3-0.1,0.3C43.4,47.7,43.3,47.7,43.3,47.7z"/>
		<path class="st6" d="M45,50.4c-0.1,0-0.2,0-0.2-0.1c0,0-0.3-0.5-0.8-1.4c-0.1-0.1,0-0.3,0.1-0.3c0.1-0.1,0.3,0,0.3,0.1
			c0.6,0.9,0.8,1.4,0.9,1.4c0.1,0.1,0,0.3-0.1,0.3C45.1,50.4,45.1,50.4,45,50.4z"/>
		<path class="st6" d="M37,73.1C36.9,73.1,36.9,73.1,37,73.1c-1.8-0.7-7.5-5.3-6.5-8.5c0.1-0.3,0.2-0.6,0.4-0.9
			c0.1-0.1,0.2-0.2,0.3-0.1c0.1,0.1,0.2,0.2,0.1,0.3c-0.1,0.3-0.3,0.6-0.4,0.9c-1,2.9,4.5,7.2,6.1,7.8c0.1,0.1,0.2,0.2,0.1,0.3
			C37.2,73.1,37.1,73.1,37,73.1z"/>
		<path class="st6" d="M31.9,62.8c-0.1,0-0.1,0-0.2-0.1c-0.1-0.1-0.1-0.2,0-0.4c0.4-0.5,0.8-0.9,1.3-1.2c0.1-0.1,0.3-0.1,0.3,0.1
			c0.1,0.1,0.1,0.3-0.1,0.3c-0.5,0.3-0.9,0.7-1.2,1.1C32.1,62.8,32,62.8,31.9,62.8z"/>
		<path class="st6" d="M35,60.7c-0.1,0-0.2-0.1-0.2-0.2c0-0.1,0-0.3,0.1-0.3c0.6-0.2,1.2-0.4,1.6-0.5c0.1,0,0.3,0,0.3,0.2
			s0,0.3-0.2,0.3C36.2,60.3,35.7,60.5,35,60.7C35,60.7,35,60.7,35,60.7z"/>
	</g>
	<g>
		<path class="st6" d="M62.3,53.6c-0.2,0-0.5,0-0.7,0l-0.6,0c-0.1,0-0.3-0.1-0.3-0.3s0.1-0.3,0.3-0.3l0.6,0c2.2,0,5.6,0,8.5-1.4
			c1.7-0.8,3-3.3,3.6-7.2c0-0.1,0.1-0.2,0.3-0.2c0.1,0,0.2,0.2,0.2,0.3c-0.7,4.1-2,6.7-3.9,7.6C67.6,53.5,64.5,53.6,62.3,53.6z"/>
		<path class="st6" d="M74.2,42.7C74.2,42.7,74.2,42.7,74.2,42.7c-0.2,0-0.3-0.1-0.2-0.3c0.1-1.1,0.2-2.4,0.2-3.7
			c0-0.1,0.1-0.2,0.3-0.2c0,0,0,0,0,0c0.1,0,0.2,0.1,0.2,0.3c0,1.3-0.1,2.6-0.3,3.7C74.4,42.6,74.3,42.7,74.2,42.7z"/>
		<path class="st6" d="M60.1,42.8c-0.1,0-0.1,0-0.2-0.1c-0.1-0.1-0.1-0.2,0-0.4c3.2-3.8,6.7-6.8,10.2-9c1.7-1,2.9-1.3,3.7-0.8
			c0.8,0.5,0.9,1.5,0.9,1.8l0,0.6c0,0.5,0,1.1,0,1.8c0,0.1-0.1,0.2-0.3,0.2c-0.1,0-0.3-0.1-0.3-0.3c0-0.7,0-1.3,0-1.8l0-0.6
			c0-0.2,0-1-0.6-1.3c-0.4-0.3-1.4-0.3-3.2,0.8c-3.5,2.2-6.9,5.1-10.1,8.9C60.2,42.8,60.2,42.8,60.1,42.8z"/>
		<path class="st6" d="M56.6,47.3c0,0-0.1,0-0.1,0c-0.1-0.1-0.1-0.2-0.1-0.3c0.6-0.9,1.3-1.9,2.1-2.8c0.1-0.1,0.2-0.1,0.4,0
			c0.1,0.1,0.1,0.2,0,0.4c-0.7,0.9-1.4,1.8-2,2.7C56.8,47.2,56.7,47.3,56.6,47.3z"/>
		<path class="st6" d="M54.9,50c0,0-0.1,0-0.1,0c-0.1-0.1-0.2-0.2-0.1-0.3c0,0,0.3-0.5,0.9-1.4c0.1-0.1,0.2-0.1,0.3-0.1
			c0.1,0.1,0.1,0.2,0.1,0.3c-0.5,0.8-0.8,1.4-0.8,1.4C55,50,54.9,50,54.9,50z"/>
		<path class="st6" d="M62.9,72.7c-0.1,0-0.2-0.1-0.2-0.2c-0.1-0.1,0-0.3,0.1-0.3c1.6-0.7,7.1-5,6.1-7.8c-0.1-0.3-0.2-0.6-0.4-0.9
			c-0.1-0.1,0-0.3,0.1-0.3c0.1-0.1,0.3,0,0.3,0.1c0.1,0.3,0.3,0.6,0.4,0.9C70.5,67.5,64.7,72,62.9,72.7C63,72.7,63,72.7,62.9,72.7z"
			/>
		<path class="st6" d="M67.9,62.4c-0.1,0-0.1,0-0.2-0.1c-0.4-0.4-0.8-0.8-1.2-1.1c-0.1-0.1-0.1-0.2-0.1-0.3c0.1-0.1,0.2-0.1,0.3-0.1
			c0.5,0.4,1,0.8,1.3,1.2c0.1,0.1,0.1,0.3,0,0.4C68.1,62.4,68,62.4,67.9,62.4z"/>
		<path class="st6" d="M64.9,60.3C64.9,60.3,64.9,60.3,64.9,60.3c-0.7-0.3-1.3-0.4-1.6-0.5c-0.1,0-0.2-0.2-0.2-0.3
			c0-0.1,0.2-0.2,0.3-0.2c0.4,0.1,0.9,0.2,1.6,0.5c0.1,0,0.2,0.2,0.1,0.3C65.1,60.2,65,60.3,64.9,60.3z"/>
	</g>
	<g>
		<path class="st6" d="M49,44.3c-0.1,0-0.2-0.1-0.3-0.2c-0.1-2.2-0.6-4.2-1.4-5.8c-0.1-0.1,0-0.3,0.1-0.3s0.3,0,0.3,0.1
			c0.8,1.7,1.3,3.7,1.5,6C49.3,44.1,49.2,44.2,49,44.3C49,44.3,49,44.3,49,44.3z"/>
	</g>
	<g>
		<path class="st6" d="M46.7,37c-0.1,0-0.2,0-0.2-0.1c-0.9-1.2-1.7-1.7-1.7-1.7c-0.1-0.1-0.2-0.2-0.1-0.3c0.1-0.1,0.2-0.2,0.3-0.1
			c0,0,0.9,0.5,1.8,1.8c0.1,0.1,0.1,0.3-0.1,0.3C46.8,37,46.8,37,46.7,37z"/>
	</g>
	<g>
		<path class="st6" d="M51,44.3C51,44.3,51,44.3,51,44.3c-0.2,0-0.3-0.1-0.3-0.3c0-0.8,0.1-1.6,0.3-2.3c0-0.1,0.2-0.2,0.3-0.2
			c0.1,0,0.2,0.2,0.2,0.3c-0.1,0.7-0.2,1.5-0.3,2.2C51.2,44.1,51.1,44.3,51,44.3z"/>
	</g>
	<g>
		<path class="st6" d="M51.7,40.4C51.6,40.4,51.6,40.4,51.7,40.4c-0.2,0-0.3-0.2-0.2-0.3c1.2-3.9,3.4-5.2,3.5-5.3
			c0.1-0.1,0.3,0,0.3,0.1s0,0.3-0.1,0.3c0,0-2.1,1.2-3.2,5C51.9,40.3,51.8,40.4,51.7,40.4z"/>
	</g>
</g>
</svg>
