<?xml version="1.0" encoding="utf-8"?>
<!-- Generator: Adobe Illustrator 23.0.3, SVG Export Plug-In . SVG Version: 6.00 Build 0)  -->
<svg version="1.1" id="Layer_1" xmlns="http://www.w3.org/2000/svg" xmlns:xlink="http://www.w3.org/1999/xlink" x="0px" y="0px"
	 viewBox="0 0 100 100" style="enable-background:new 0 0 100 100;" xml:space="preserve">
<style type="text/css">
	.st0{fill:#F1BC19;}
	.st1{fill:#E6EDB7;}
	.st2{fill:#9F8066;}
	.st3{fill:#FBCD59;}
	.st4{fill:#FFFFFF;}
	.st5{fill:#C07853;}
	.st6{fill:#472B29;}
	.st7{fill:#EC795A;}
	.st8{fill:#1F212B;}
	.st9{fill:#EE8670;}
</style>
<circle class="st0" cx="77" cy="13" r="1"/>
<circle class="st1" cx="50" cy="50" r="37"/>
<circle class="st0" cx="83" cy="15" r="4"/>
<circle class="st2" cx="87" cy="24" r="2"/>
<circle class="st3" cx="81" cy="76" r="2"/>
<circle class="st2" cx="25" cy="87" r="2"/>
<circle class="st4" cx="33.5" cy="22.5" r="2.5"/>
<circle class="st4" cx="79.5" cy="40.5" r="1.5"/>
<g>
	<circle class="st3" cx="16.1" cy="69" r="4"/>
</g>
<g>
	<path class="st5" d="M52,36c0,0-5.8-1.3-10.2-1.3c2.2-1.3,5.9-3,9.2-1.7c0,0-1-5-13,0c0,0,0,0,0,0c-2.6,0.1-9.8,0.7-13,4
		c-3,3,1,4,3,4c0,0,5.4-0.9,10.3-2.7C40,38,45.6,37,49,37C51,37,52,36,52,36z"/>
	<path class="st6" d="M28,41.5c-1.4,0-3.9-0.4-4.5-1.9c-0.4-0.9,0-1.9,1.1-3c3.3-3.3,10.2-4,13.2-4.1c5.6-2.3,9.6-2.9,12-1.6
		c1.4,0.8,1.7,1.9,1.7,2c0,0.2,0,0.4-0.2,0.5c-0.1,0.1-0.3,0.1-0.5,0.1c-2.4-1-5.1-0.1-7.1,0.8c4,0.2,8.2,1.2,8.4,1.2
		c0.2,0,0.3,0.2,0.4,0.3c0.1,0.2,0,0.4-0.1,0.5c0,0-1.2,1.1-3.4,1.1c-3.3,0-9,1-10.6,1.3C33.6,40.6,28.1,41.5,28,41.5
		C28.1,41.5,28.1,41.5,28,41.5z M38.3,33.4c-0.1,0.1-0.2,0.1-0.3,0.1c-2.2,0.1-9.5,0.7-12.7,3.8c-0.5,0.5-1.1,1.3-0.9,1.9
		c0.3,0.8,2.1,1.3,3.5,1.3c0,0,5.4-0.9,10.1-2.7c1.8-0.3,7.5-1.3,10.9-1.3c0.7,0,1.2-0.1,1.6-0.3c-1.9-0.4-5.7-1-8.8-1
		c-0.2,0-0.4-0.1-0.5-0.4c-0.1-0.2,0-0.4,0.2-0.6c2.2-1.3,5.3-2.7,8.3-2.2c-0.1-0.1-0.3-0.2-0.5-0.4C47.9,31.1,44.8,30.7,38.3,33.4z
		"/>
	<path class="st7" d="M41,43c0,0-2,0-6-1s-5-3-7-3s-4.5,1.5-3,4c0.5,0.9,5,4,11,5S41,43,41,43z"/>
	<path class="st6" d="M37.3,48.6c-0.4,0-0.9,0-1.3-0.1c-6-1-10.7-4.1-11.3-5.2c-0.8-1.3-0.5-2.3-0.2-2.9c0.7-1.3,2.4-1.8,3.6-1.8
		c1.1,0,1.9,0.5,2.9,1.1c1,0.6,2.2,1.4,4.2,1.9c3.9,1,5.9,1,5.9,1c0.2,0,0.5,0.2,0.5,0.4c0,0.1,0.5,2.9-1.2,4.6
		C39.6,48.2,38.6,48.6,37.3,48.6z M28,39.5c-1,0-2.3,0.5-2.8,1.3c-0.3,0.5-0.2,1.2,0.2,1.9c0.4,0.7,4.7,3.8,10.7,4.8
		c1.6,0.3,2.8,0,3.5-0.7c1-1,1-2.6,0.9-3.3c-0.8-0.1-2.7-0.3-5.7-1c-2.2-0.5-3.5-1.4-4.5-2C29.5,39.9,28.8,39.5,28,39.5z"/>
	<path class="st5" d="M35,52l-7,1c0,0-3-5-7-6c1-3,2-6,2-6s-5,3-5,7c3,3,5,6,9,7c4,0,9-2,9-2L35,52z"/>
	<path class="st6" d="M27,55.5c0,0-0.1,0-0.1,0c-3.3-0.8-5.3-3-7.5-5.3c-0.6-0.6-1.1-1.2-1.7-1.8c-0.1-0.1-0.1-0.2-0.1-0.4
		c0-4.2,5-7.3,5.2-7.4c0.2-0.1,0.4-0.1,0.6,0c0.2,0.1,0.2,0.3,0.2,0.5l-1.8,5.5c3.4,1.1,5.9,4.7,6.6,5.8l6.7-1c0.2,0,0.3,0,0.4,0.1
		l1,1c0.1,0.1,0.2,0.3,0.1,0.5c0,0.2-0.1,0.3-0.3,0.4C36,53.5,31,55.5,27,55.5z M18.5,47.8c0.6,0.6,1.1,1.1,1.6,1.7
		c2.1,2.3,3.9,4.2,6.9,5c3,0,6.5-1.2,8-1.7l-0.3-0.3l-6.8,1c-0.2,0-0.4-0.1-0.5-0.2c0,0-2.9-4.8-6.7-5.8c-0.1,0-0.3-0.1-0.3-0.2
		c-0.1-0.1-0.1-0.3,0-0.4l1.5-4.5C20.7,43.4,18.6,45.4,18.5,47.8z"/>
	<path class="st5" d="M37,59l-5,1c0,0-3,4-3,6s3,5,6,6s-2-6-2-6s1-1,2-4c2,0,4-1,4-1L37,59z"/>
	<path class="st6" d="M35.5,72.6c-0.2,0-0.4,0-0.7-0.1c-3.3-1.1-6.3-4.2-6.3-6.5c0-2.1,2.8-5.9,3.1-6.3c0.1-0.1,0.2-0.2,0.3-0.2l5-1
		c0.2,0,0.3,0,0.5,0.1l2,2c0.1,0.1,0.2,0.3,0.1,0.4s-0.1,0.3-0.3,0.4c-0.1,0-1.9,0.9-3.9,1c-0.7,2-1.4,3-1.7,3.5
		c1.4,2,3.4,5.2,2.6,6.2C36.1,72.4,35.9,72.6,35.5,72.6z M32.3,60.5c-0.9,1.2-2.8,4.1-2.8,5.5c0,1.8,2.9,4.6,5.7,5.5
		c0.2,0.1,0.3,0.1,0.3,0.1c0-0.6-1.3-3-2.9-5.3c-0.1-0.2-0.1-0.5,0.1-0.6c0,0,0.9-1,1.9-3.8c0.1-0.2,0.3-0.3,0.5-0.3
		c1.2,0,2.4-0.4,3.1-0.7l-1.3-1.3L32.3,60.5z"/>
	<path class="st5" d="M36,56l-7,1l-8,3c0,0-1,3,0,6l2-4l6-3l7-1V56z"/>
	<path class="st6" d="M21,66.5C21,66.5,21,66.5,21,66.5c-0.2,0-0.4-0.2-0.5-0.3c-1-3.1,0-6.2,0-6.3c0-0.1,0.2-0.3,0.3-0.3l8-3
		c0,0,0.1,0,0.1,0l7-1c0.1,0,0.3,0,0.4,0.1c0.1,0.1,0.2,0.2,0.2,0.4v2c0,0.2-0.2,0.5-0.4,0.5l-6.9,1l-5.8,2.9l-1.9,3.9
		C21.4,66.4,21.2,66.5,21,66.5z M21.4,60.4c-0.2,0.6-0.5,2.3-0.2,4.2l1.4-2.8c0-0.1,0.1-0.2,0.2-0.2l6-3c0,0,0.1,0,0.2,0l6.6-0.9v-1
		l-6.4,0.9L21.4,60.4z"/>
	<path class="st5" d="M75,39.9c-1.4-4.4-7.4-8.2-9.7-9.5c0,0,0,0,0,0c-8.3-10-11.5-6-11.5-6c3.5,0.4,6.1,3.6,7.3,5.8
		c-4.2-0.8-9.4-0.8-9.4-0.8s0.8,1.2,2.7,1.6c2,0.5,4.9,1.5,7.1,2.3c0.1,0.3,0.3,0.7,0.6,1c3.5,4.1,8.4,7.8,8.4,7.8
		C72.3,43,76.3,43.9,75,39.9z"/>
	<path class="st6" d="M73.5,43.4c-1.2,0-2.5-0.5-3.2-0.9c-0.1-0.1-5-3.8-8.5-7.9c-0.3-0.3-0.5-0.6-0.6-1c-2.9-1.1-5.2-1.9-6.8-2.2
		c-2.1-0.5-3-1.8-3-1.8c-0.1-0.2-0.1-0.3,0-0.5c0.1-0.2,0.3-0.3,0.4-0.3c0,0,0,0,0,0c0,0,4.5,0,8.4,0.6c-1.3-1.9-3.5-4.3-6.4-4.6
		c-0.2,0-0.3-0.1-0.4-0.3c-0.1-0.2,0-0.4,0.1-0.5c0,0,0.8-1,2.4-1c2.7,0,6,2.3,9.9,7c2.6,1.5,8.4,5.3,9.8,9.7l0,0
		c0.5,1.5,0.3,2.5-0.4,3.1C74.7,43.2,74.1,43.4,73.5,43.4z M53,29.8c0.4,0.2,0.9,0.5,1.5,0.6c1.7,0.4,4.1,1.2,7.2,2.4
		c0.1,0.1,0.3,0.2,0.3,0.3c0.1,0.3,0.2,0.5,0.5,0.8c3.4,4,8.2,7.7,8.3,7.7c1.2,0.6,3,1,3.6,0.5c0.5-0.4,0.3-1.3,0.1-2.1
		c-1.3-4.3-7.6-8.2-9.5-9.3c-0.1-0.1-0.2-0.2-0.2-0.3c-4.5-5.4-7.3-6.5-9-6.5c-0.2,0-0.5,0-0.6,0.1c2.9,0.9,5,3.6,6.3,5.8
		c0.1,0.2,0.1,0.4,0,0.5c-0.1,0.2-0.3,0.2-0.5,0.2C58.2,30,54.8,29.9,53,29.8z"/>
	<path class="st7" d="M60,43c0,0,2,0,6-1s5-3,7-3s3,3,3,4s-5,4-11,5S60,43,60,43z"/>
	<path class="st6" d="M63.7,48.6c-1.3,0-2.3-0.4-3-1.1c-1.6-1.6-1.2-4.5-1.2-4.6c0-0.2,0.2-0.4,0.5-0.4c0,0,2,0,5.9-1
		c2-0.5,3.3-1.3,4.2-1.9c1-0.6,1.8-1.1,2.9-1.1c2.4,0,3.5,3.4,3.5,4.5c0,1.5-5.6,4.5-11.4,5.5C64.6,48.6,64.2,48.6,63.7,48.6z
		 M60.5,43.5c0,0.7,0,2.4,0.9,3.3c0.7,0.7,1.9,1,3.5,0.7c5.9-1,10.4-3.8,10.6-4.5c0-0.8-0.9-3.5-2.5-3.5c-0.8,0-1.5,0.4-2.3,1
		c-1.1,0.7-2.4,1.5-4.5,2C63.1,43.2,61.3,43.4,60.5,43.5z"/>
	<path class="st5" d="M66,52l7,1c0,0,3-5,7-6c-1-3-2-6-2-6s5,3,5,7c-3,3-5,6-9,7c-4,0-9-2-9-2L66,52z"/>
	<path class="st6" d="M74,55.5c-4.1,0-9-2-9.2-2c-0.2-0.1-0.3-0.2-0.3-0.4c0-0.2,0-0.3,0.1-0.5l1-1c0.1-0.1,0.3-0.2,0.4-0.1l6.7,1
		c0.7-1.1,3.2-4.7,6.6-5.8l-1.8-5.5c-0.1-0.2,0-0.4,0.2-0.5c0.2-0.1,0.4-0.1,0.6,0c0.2,0.1,5.2,3.2,5.2,7.4c0,0.1-0.1,0.3-0.1,0.4
		c-0.6,0.6-1.2,1.2-1.7,1.8c-2.1,2.3-4.2,4.5-7.5,5.3C74.1,55.5,74,55.5,74,55.5z M65.9,52.8c1.5,0.5,5.1,1.7,8,1.7
		c3-0.8,4.8-2.7,6.9-5c0.5-0.6,1-1.1,1.6-1.7c-0.1-2.4-2.2-4.4-3.5-5.5l1.5,4.5c0,0.1,0,0.3,0,0.4c-0.1,0.1-0.2,0.2-0.3,0.2
		c-3.7,0.9-6.7,5.7-6.7,5.8c-0.1,0.2-0.3,0.3-0.5,0.2l-6.8-1L65.9,52.8z"/>
	<path class="st5" d="M64,59l5,1c0,0,3,4,3,6s-3,5-6,6s2-6,2-6s-1-1-2-4c-2,0-4-1-4-1L64,59z"/>
	<path class="st6" d="M65.5,72.6c-0.4,0-0.6-0.2-0.8-0.4C64,71.2,66,68,67.4,66c-0.4-0.5-1-1.6-1.7-3.5c-2-0.1-3.8-1-3.9-1
		c-0.1-0.1-0.2-0.2-0.3-0.4s0-0.3,0.1-0.4l2-2c0.1-0.1,0.3-0.2,0.5-0.1l5,1c0.1,0,0.2,0.1,0.3,0.2c0.3,0.4,3.1,4.2,3.1,6.3
		c0,2.2-3.1,5.4-6.3,6.5C65.9,72.6,65.7,72.6,65.5,72.6z M62.9,60.8c0.7,0.3,1.9,0.7,3.1,0.7c0.2,0,0.4,0.1,0.5,0.3
		c0.9,2.8,1.9,3.8,1.9,3.8c0.2,0.2,0.2,0.4,0.1,0.6c-1.6,2.3-2.9,4.7-2.9,5.3c0.1,0,0.2,0,0.3-0.1c2.7-0.9,5.7-3.8,5.7-5.5
		c0-1.4-1.9-4.4-2.8-5.5l-4.5-0.9L62.9,60.8z"/>
	<path class="st5" d="M65,56l7,1l8,3c0,0,1,3,0,6l-2-4l-6-3l-7-1V56z"/>
	<path class="st6" d="M80,66.5c-0.2,0-0.4-0.1-0.4-0.3l-1.9-3.9l-5.8-2.9l-6.9-1c-0.2,0-0.4-0.2-0.4-0.5v-2c0-0.1,0.1-0.3,0.2-0.4
		c0.1-0.1,0.3-0.1,0.4-0.1l7,1c0,0,0.1,0,0.1,0l8,3c0.1,0.1,0.3,0.2,0.3,0.3c0,0.1,1,3.2,0,6.3C80.4,66.4,80.2,66.5,80,66.5
		C80,66.5,80,66.5,80,66.5z M65.5,57.6l6.6,0.9c0.1,0,0.1,0,0.2,0l6,3c0.1,0,0.2,0.1,0.2,0.2l1.4,2.8c0.3-1.9-0.1-3.6-0.2-4.2
		l-7.7-2.9l-6.4-0.9V57.6z"/>
	<path class="st7" d="M43,65.3c-1.9,0-4.3-2.6-6.7-5.4c-1.7-1.9-3.4-3.8-5.4-5.4c-0.6-0.5-0.8-1.3-0.4-1.9
		c3.3-6,10.5-11.9,14.5-11.9h11c4,0,11.1,5.9,14.5,11.9c0.4,0.6,0.2,1.5-0.4,1.9c-1.9,1.6-3.7,3.5-5.4,5.4c-2.5,2.8-4.8,5.4-6.7,5.4
		H43z"/>
	<path class="st6" d="M56,41.4c3.7,0,10.7,5.8,13.9,11.5c0.2,0.3,0.1,0.8-0.2,1.1c-2,1.6-3.7,3.6-5.4,5.5c-2.2,2.5-4.6,5.1-6.2,5.1
		h-7h-1h-7c-1.6,0-3.9-2.6-6.2-5.1c-1.7-1.9-3.4-3.9-5.4-5.5c-0.3-0.3-0.4-0.7-0.2-1.1c3.2-5.7,10.2-11.5,13.9-11.5h5h1H56 M56,40
		h-5h-1h-5c-4.5,0-11.9,6.4-15.1,12.3c-0.5,1-0.3,2.1,0.6,2.8c5,4,8.9,10.9,12.5,10.9h7h1h7c3.6,0,7.5-6.9,12.5-10.9
		c0.8-0.7,1.1-1.9,0.6-2.8C67.9,46.4,60.5,40,56,40L56,40z"/>
	<circle class="st8" cx="45" cy="40" r="1"/>
	<circle class="st9" cx="60" cy="47" r="1"/>
	<circle class="st9" cx="57" cy="49" r="1"/>
	<circle class="st9" cx="63" cy="49" r="1"/>
	<circle class="st9" cx="63" cy="53" r="1"/>
	<circle class="st9" cx="60" cy="51" r="1"/>
	<circle class="st9" cx="66" cy="51" r="1"/>
	<circle class="st9" cx="57" cy="53" r="1"/>
	<circle class="st9" cx="57" cy="57" r="1"/>
	<circle class="st9" cx="44" cy="49" r="1"/>
	<circle class="st9" cx="41" cy="51" r="1"/>
	<circle class="st9" cx="35" cy="51" r="1"/>
	<circle class="st9" cx="41" cy="47" r="1"/>
	<circle class="st9" cx="41" cy="55" r="1"/>
	<circle class="st9" cx="41" cy="59" r="1"/>
	<circle class="st9" cx="44" cy="53" r="1"/>
	<circle class="st9" cx="38" cy="49" r="1"/>
	<circle class="st9" cx="38" cy="53" r="1"/>
	<circle class="st9" cx="44" cy="57" r="1"/>
	<circle class="st9" cx="60" cy="55" r="1"/>
	<circle class="st9" cx="60" cy="59" r="1"/>
	<circle class="st8" cx="56" cy="40" r="1"/>
	<path class="st6" d="M45.7,60.8c0,0-0.1,0-0.1,0c-0.1-0.1-0.1-0.2-0.1-0.3c0.8-1.2,1.3-2.6,1.4-4.1c0-0.1,0.1-0.2,0.3-0.2
		c0.1,0,0.2,0.1,0.2,0.3c-0.2,1.6-0.7,3-1.5,4.3C45.9,60.8,45.8,60.8,45.7,60.8z"/>
	<path class="st6" d="M47.2,55c-0.1,0-0.2-0.1-0.3-0.2c-0.1-1.3-0.4-2.7-0.9-4.2c0-0.1,0-0.3,0.2-0.3c0.1,0,0.3,0,0.3,0.2
		c0.5,1.5,0.8,3,0.9,4.4C47.5,54.9,47.4,55,47.2,55C47.2,55,47.2,55,47.2,55z"/>
	<path class="st6" d="M45.7,49c-0.1,0-0.2-0.1-0.2-0.2c-1-2.3-2.1-3.9-2.1-3.9c-0.1-0.1-0.1-0.3,0.1-0.3c0.1-0.1,0.3-0.1,0.3,0.1
		c0,0.1,1.2,1.7,2.2,4C45.9,48.7,45.9,48.9,45.7,49C45.7,48.9,45.7,49,45.7,49z"/>
	<path class="st6" d="M55,60.8c-0.1,0-0.2,0-0.2-0.1c-1.5-2.7-1.7-6.3-0.5-10.4c0-0.1,0.2-0.2,0.3-0.2c0.1,0,0.2,0.2,0.2,0.3
		c-0.8,2.8-1.4,6.8,0.5,10c0.1,0.1,0,0.3-0.1,0.3C55.1,60.8,55.1,60.8,55,60.8z"/>
	<path class="st6" d="M55.1,49C55,49,55,48.9,55.1,49c-0.2-0.1-0.3-0.2-0.2-0.3c0.9-2.3,1.8-3.9,1.8-4c0.1-0.1,0.2-0.2,0.3-0.1
		c0.1,0.1,0.2,0.2,0.1,0.3c0,0-1,1.6-1.8,3.9C55.2,48.9,55.2,49,55.1,49z"/>
	<path class="st6" d="M37.2,57.5c-0.1,0-0.1,0-0.2-0.1c-1.6-1.6-3-3-3-3c-0.1-0.1-0.1-0.3,0-0.4c0.1-0.1,0.3-0.1,0.4,0
		c0,0,1.4,1.4,3,3c0.1,0.1,0.1,0.3,0,0.4C37.3,57.5,37.3,57.5,37.2,57.5z"/>
	<path class="st6" d="M46,63.3c-2.4,0-3.4-0.2-4.9-1.8c-0.7-0.7-1.7-1.7-2.7-2.7c-0.1-0.1-0.1-0.3,0-0.4c0.1-0.1,0.3-0.1,0.4,0
		c1,1,2,2,2.7,2.7c1.7,1.7,2.6,1.7,6.3,1.6l1.1,0c0.1,0,0.3,0.1,0.3,0.2c0,0.1-0.1,0.3-0.2,0.3l-1.1,0C47,63.3,46.5,63.3,46,63.3z"
		/>
	<path class="st6" d="M55,63.3c-0.5,0-1,0-1.6,0c-0.8,0-1.6,0-2.6,0c-0.1,0-0.3-0.1-0.3-0.3s0.1-0.3,0.3-0.3c1,0,1.8,0,2.6,0
		c3.5,0,4.9,0.1,6.3-1.2c0.9-0.8,2-2.1,3.2-3.6c1.4-1.7,3-3.6,4.6-5.1c0.1-0.1,0.3-0.1,0.4,0c0.1,0.1,0.1,0.3,0,0.4
		c-1.6,1.4-3.2,3.3-4.6,5c-1.3,1.5-2.3,2.8-3.3,3.6C58.8,63.1,57.5,63.3,55,63.3z"/>
	<path class="st6" d="M38.1,38.4c-0.1,0-0.1,0-0.2-0.1c-0.1-0.1-0.1-0.3,0-0.4c1.5-1.2,0.2-3.3,0.2-3.4c-0.1-0.1,0-0.3,0.1-0.3
		c0.1-0.1,0.3,0,0.3,0.1c0.6,0.9,1.2,2.9-0.3,4.1C38.2,38.4,38.2,38.4,38.1,38.4z"/>
	<path class="st6" d="M61.6,33.9C61.6,33.9,61.6,33.9,61.6,33.9c-0.2,0-0.3-0.1-0.2-0.3c0.3-2.6,2-3.1,2.1-3.1
		c0.1,0,0.3,0.1,0.3,0.2c0,0.1-0.1,0.3-0.2,0.3c-0.1,0-1.5,0.4-1.7,2.7C61.9,33.8,61.8,33.9,61.6,33.9z"/>
	<g>
		<path class="st6" d="M35.3,46C35.2,46,35.2,46,35.3,46c-0.6-0.1-1.2-0.2-1.8-0.4c-0.1,0-0.2-0.2-0.2-0.3c0-0.1,0.2-0.2,0.3-0.2
			c0.6,0.2,1.1,0.3,1.7,0.4c0.1,0,0.2,0.2,0.2,0.3C35.5,45.9,35.4,46,35.3,46z"/>
	</g>
	<g>
		<path class="st6" d="M31.8,45C31.7,45,31.7,45,31.8,45c-0.9-0.3-1.7-0.7-2.4-1.2c-0.1-0.1-0.2-0.2-0.1-0.3s0.2-0.2,0.3-0.1
			c0.7,0.4,1.5,0.8,2.2,1.1c0.1,0.1,0.2,0.2,0.1,0.3C31.9,44.9,31.8,45,31.8,45z"/>
	</g>
	<g>
		<path class="st6" d="M28.3,43.1c-0.1,0-0.1,0-0.1,0c-0.8-0.6-1.3-1.1-1.3-1.1c-0.1-0.1-0.1-0.3,0-0.4c0.1-0.1,0.3-0.1,0.4,0
			c0,0,0.4,0.4,1.2,1c0.1,0.1,0.1,0.2,0.1,0.3C28.4,43,28.3,43.1,28.3,43.1z"/>
	</g>
	<g>
		<path class="st6" d="M71.1,44.4c-0.1,0-0.2-0.1-0.2-0.2c-0.1-0.1,0-0.3,0.1-0.3c1-0.4,1.8-0.9,2.3-1.3c0.1-0.1,0.3-0.1,0.4,0
			c0.1,0.1,0.1,0.3,0,0.4c-0.6,0.5-1.4,1-2.4,1.4C71.2,44.4,71.2,44.4,71.1,44.4z"/>
	</g>
	<g>
		<path class="st6" d="M65.5,46.1c-0.1,0-0.2-0.1-0.2-0.2c0-0.1,0.1-0.3,0.2-0.3c0,0,1.9-0.4,3.8-1.1c0.1,0,0.3,0,0.3,0.2
			c0,0.1,0,0.3-0.2,0.3C67.4,45.7,65.6,46.1,65.5,46.1C65.5,46.1,65.5,46.1,65.5,46.1z"/>
	</g>
	<g>
		<path class="st6" d="M33,66.3c-0.1,0-0.1,0-0.2-0.1c-1.2-1.2-2.3-0.6-2.3-0.6c-0.1,0.1-0.3,0-0.3-0.1s0-0.3,0.1-0.3
			c0,0,1.4-0.8,2.9,0.7c0.1,0.1,0.1,0.3,0,0.4C33.1,66.2,33.1,66.3,33,66.3z"/>
	</g>
	<g>
		<path class="st6" d="M67.8,66.5c0,0-0.1,0-0.1,0c-0.1-0.1-0.1-0.2-0.1-0.3c0.8-1.2,2.3-1.1,2.4-1.1c0.1,0,0.2,0.1,0.2,0.3
			c0,0.1-0.2,0.2-0.3,0.2c-0.1,0-1.2-0.1-1.9,0.9C67.9,66.5,67.8,66.5,67.8,66.5z"/>
	</g>
	<g>
		<path class="st6" d="M19.1,47.4c-0.1,0-0.2,0-0.2-0.1c-0.1-0.1,0-0.3,0.1-0.3c0,0,1.2-0.7,2.5-0.1c0.1,0.1,0.2,0.2,0.1,0.3
			c-0.1,0.1-0.2,0.2-0.3,0.1c-1-0.4-2,0.1-2,0.1C19.2,47.4,19.2,47.4,19.1,47.4z"/>
	</g>
	<g>
		<path class="st6" d="M23,62.3c-0.1,0-0.3-0.1-0.3-0.3c0-0.9-0.7-1.1-0.7-1.1c-0.1,0-0.2-0.2-0.2-0.3c0-0.1,0.2-0.2,0.3-0.2
			c0.4,0.1,1.1,0.6,1.1,1.6C23.3,62.1,23.1,62.3,23,62.3z"/>
	</g>
	<g>
		<path class="st6" d="M78.8,61.3c-0.1,0-0.1,0-0.2-0.1c-0.1-0.1-0.1-0.3,0-0.4l1.3-1c0.1-0.1,0.3-0.1,0.4,0c0.1,0.1,0.1,0.3,0,0.4
			l-1.3,1C78.9,61.2,78.8,61.3,78.8,61.3z"/>
	</g>
	<g>
		<path class="st6" d="M83,48.3c-0.1,0-0.2,0-0.2-0.1c-0.5-0.9-1.5-0.9-1.5-0.9c-0.1,0-0.3-0.1-0.3-0.3s0.1-0.3,0.3-0.3
			c0.1,0,1.3,0,2,1.1c0.1,0.1,0,0.3-0.1,0.3C83.1,48.2,83,48.3,83,48.3z"/>
	</g>
</g>
</svg>
