<?xml version="1.0" encoding="utf-8"?>
<!-- Generator: Adobe Illustrator 23.0.3, SVG Export Plug-In . SVG Version: 6.00 Build 0)  -->
<svg version="1.1" id="Layer_1" xmlns="http://www.w3.org/2000/svg" xmlns:xlink="http://www.w3.org/1999/xlink" x="0px" y="0px"
	 viewBox="0 0 100 100" style="enable-background:new 0 0 100 100;" xml:space="preserve">
<style type="text/css">
	.st0{fill:#EE3E54;}
	.st1{fill:#F1BC19;}
	.st2{fill:#FCE0A2;}
	.st3{fill:#FBCD59;}
	.st4{fill:#FFFFFF;}
	.st5{fill:#9F8066;}
	.st6{fill:#88AE45;}
	.st7{fill:#472B29;}
	.st8{fill:#F6CCA4;}
</style>
<circle class="st0" cx="13" cy="29" r="2"/>
<circle class="st1" cx="77" cy="13" r="1"/>
<circle class="st2" cx="50" cy="50" r="37"/>
<circle class="st1" cx="83" cy="15" r="4"/>
<circle class="st0" cx="87" cy="24" r="2"/>
<circle class="st3" cx="81" cy="76" r="2"/>
<circle class="st3" cx="15" cy="63" r="4"/>
<circle class="st0" cx="25" cy="87" r="2"/>
<circle class="st4" cx="18.5" cy="53.5" r="2.5"/>
<circle class="st1" cx="21" cy="67" r="1"/>
<circle class="st4" cx="80" cy="34" r="1"/>
<path class="st5" d="M54.8,32.1c0.9-0.1,1.6,0.9,1.3,1.8c-1.3,3-3.2,9.6-1.1,18.1c3,12-18,2-18,2S37,33.6,54.8,32.1z"/>
<path class="st5" d="M82.9,54.7c0.8-0.4,0.6-1.6-0.2-1.7c-1.4-0.3-3.9-1.3-6.7-5c-3-4-8-3-11-1s-18-1-23,0c-4.8,1-12.3,3.7-19,17
	c-0.4,0.7,0.3,1.5,1,1.3c5.3-1.3,15.8-1.4,21-2.3c6-1,15-10,30-8C79.5,55.6,81.8,55.2,82.9,54.7z"/>
<path class="st6" d="M84,53c0,0-3.7,0.8-8-5c-3-4-8-3-11-1c-1.1,0.8-3.9,0.8-7.3,0.6c-0.6,1.4-1.6,5.2,2,9C64,55.2,69,54.2,75,55
	C85,56.3,84,53,84,53z"/>
<ellipse class="st5" cx="71" cy="50.5" rx="2" ry="1.5"/>
<path class="st7" d="M71,52.3c-1.2,0-2.3-0.8-2.3-1.8c0-0.1,0.1-0.3,0.3-0.3s0.3,0.1,0.3,0.3c0,0.7,0.8,1.3,1.8,1.3s1.8-0.6,1.8-1.3
	S72,49.3,71,49.3c-0.3,0-0.7,0.1-1,0.2c-0.1,0.1-0.3,0-0.3-0.1s0-0.3,0.1-0.3c0.4-0.2,0.8-0.3,1.2-0.3c1.2,0,2.3,0.8,2.3,1.8
	S72.2,52.3,71,52.3z"/>
<path class="st8" d="M36.4,27.3c0.7-0.5,1.7-0.1,1.8,0.7c0.3,3.2,1.3,9.8,5.6,14.1c6,6,9.3,8.9,6.3,12.9s-9.1,8.3-19.1,8.3
	c0,0-2.7-4.8,0-9.4C28,49.1,21.4,39.7,36.4,27.3z"/>
<path class="st5" d="M39.1,33c-0.5-1.9-0.8-3.6-0.9-4.9c-0.1-0.9-1.2-1.3-1.9-0.8C24,37.6,25.8,45.8,28.4,51.1
	C30.6,41.3,35.8,35.7,39.1,33z"/>
<path class="st1" d="M84,53c0,0-2.4,0.5-5.7-2.4c-2.1,1-3.3,2.4-3,4.5C84.9,56.3,84,53,84,53z"/>
<path class="st4" d="M56.3,47.5c0,0-2.3,5.4,1.2,10c1.1-0.4,1.9-0.7,2.9-1.1c-1.7-1.8-2.2-6.1-1.3-8.8
	C58.1,47.6,56.3,47.5,56.3,47.5z"/>
<path class="st7" d="M36.8,28.7c0.4,3,1.7,7.1,4,10.8l1.1,1.7l1.2-1.6c2.7-3.7,6.4-5.6,11.6-6.1c-1.1,2.6-2.4,7.2-2,13.2
	c0.1,1.1,1,2,2.1,2.1c1.8,0.1,3.9,0.3,5.7,0.3c2.6,0,4.2-0.3,5.2-0.9c1.4-1,3.2-1.5,4.7-1.5c1.8,0,3.3,0.7,4.4,2.2
	c2.9,3.8,6.4,4.8,8.1,5.1c-0.1,0.3-0.4,0.8-1,1c-0.4,0.2-0.9,0.3-2.2,0.3c-1.1,0-2.6-0.1-4.5-0.4c-1.7-0.2-3.4-0.3-5.1-0.3
	c-8.3,0-14.7,2.8-19.3,4.9c-2.4,1-4.4,1.9-6.1,2.2c-2.1,0.4-5.2,0.6-8.4,0.8c-4.2,0.3-8.5,0.6-11.7,1.3c1.8-3.4,3.7-6.2,5.8-8.5
	c0.7-0.7,0.8-1.8,0.3-2.7C28.4,48.5,23.4,40.1,36.8,28.7 M37.2,26.9c-0.2,0-0.4,0.1-0.5,0.2C22,39,26.6,48.2,29.6,53.3
	c0.2,0.3,0.1,0.7-0.1,1c-2.2,2.4-4.4,5.6-6.5,9.8c-0.3,0.6,0.1,1.3,0.8,1.3c0.1,0,0.1,0,0.2,0C29.2,64,39.8,63.9,45,63
	c5.3-0.9,13-7,25.2-7c1.6,0,3.2,0.1,4.9,0.3c2.1,0.3,3.6,0.4,4.7,0.4c1.4,0,2.1-0.2,2.8-0.5c2-0.9,2.4-3.4,1.2-3.6
	c-1.6-0.2-4.9-0.9-7.7-4.7c-1.5-2-3.5-2.8-5.5-2.8S66.5,46,65,47c-0.8,0.5-2.4,0.7-4.4,0.7c-1.7,0-3.6-0.1-5.6-0.3
	c-0.4,0-0.8-0.4-0.8-0.8c-0.5-6.5,1.2-11.2,2.2-13.4c0.3-0.6-0.2-1.2-0.8-1.2c0,0,0,0-0.1,0c-6.8,0.4-10.8,3-13.5,6.7
	c-2.6-4.2-3.7-8.6-3.9-11.1C38,27.2,37.6,26.9,37.2,26.9L37.2,26.9z"/>
<path class="st7" d="M47.3,58.3c-0.2,0-0.3-0.1-0.4-0.2c-0.2-0.2-0.1-0.5,0.1-0.7c0.7-0.6,1.4-1.2,1.9-1.8c0.2-0.2,0.5-0.2,0.7,0
	c0.2,0.2,0.2,0.5,0,0.7c-0.6,0.6-1.3,1.3-2.1,1.9C47.5,58.3,47.4,58.3,47.3,58.3z"/>
<path class="st7" d="M50.6,54.4c-0.1,0-0.1,0-0.2,0c-0.2-0.1-0.4-0.4-0.2-0.7c1.1-2.3,0.6-4.7-1.5-6.1c-2.6-1.8-6-5.3-7.7-7.8
	c-0.2-0.2-0.1-0.5,0.1-0.7c0.2-0.2,0.5-0.1,0.7,0.1c1.6,2.4,4.9,5.8,7.4,7.6c2.4,1.7,3.1,4.6,1.8,7.3C51,54.3,50.8,54.4,50.6,54.4z"
	/>
<path class="st7" d="M29.7,59.5c-0.1,0-0.2-0.1-0.3-0.2c0-0.5,0-1.1,0-1.6c0-0.1,0.1-0.3,0.3-0.2c0.1,0,0.2,0.1,0.2,0.3
	c0,0.6,0,1.1,0,1.6C29.9,59.3,29.8,59.4,29.7,59.5C29.7,59.5,29.7,59.5,29.7,59.5z"/>
<path class="st7" d="M31,64c0,0-0.1,0-0.1,0c-0.1-0.1-1-0.7-1.3-3.3c0-0.1,0.1-0.3,0.2-0.3c0.1,0,0.3,0.1,0.3,0.2
	c0.3,2.4,1.1,3,1.1,3c0.1,0.1,0.1,0.2,0.1,0.3C31.2,63.9,31.1,64,31,64z"/>
<path class="st7" d="M60.5,56.5C60.5,56.5,60.5,56.5,60.5,56.5c-0.2-0.1-1.4-0.6-2-4.1c0-0.1,0.1-0.3,0.2-0.3c0.1,0,0.3,0.1,0.3,0.2
	c0.5,3.2,1.6,3.7,1.6,3.7c0.1,0.1,0.2,0.2,0.1,0.3C60.7,56.4,60.6,56.5,60.5,56.5z"/>
<g>
	<path class="st7" d="M58.7,50.8C58.7,50.8,58.7,50.8,58.7,50.8c-0.2,0-0.3-0.1-0.2-0.3c0.1-1.6,0.8-2.3,0.9-2.4
		c0.1-0.1,0.3-0.1,0.4,0c0.1,0.1,0.1,0.3,0,0.4l0,0c0,0-0.6,0.7-0.7,2.1C58.9,50.7,58.8,50.8,58.7,50.8z"/>
</g>
<g>
	<path class="st7" d="M57.6,57.3C57.5,57.3,57.5,57.3,57.6,57.3c-0.1,0-1.5-0.6-2.1-4.4c0-0.1,0.1-0.3,0.2-0.3
		c0.1,0,0.3,0.1,0.3,0.2c0.5,3.4,1.7,4,1.7,4c0.1,0.1,0.2,0.2,0.1,0.3C57.8,57.3,57.7,57.3,57.6,57.3z"/>
</g>
<g>
	<path class="st7" d="M55.6,51.2C55.6,51.2,55.6,51.2,55.6,51.2c-0.2,0-0.3-0.1-0.2-0.3c0.2-1.7,0.9-2.5,0.9-2.5
		c0.1-0.1,0.3-0.1,0.4,0c0.1,0.1,0.1,0.3,0,0.4c0,0-0.6,0.7-0.8,2.2C55.9,51.1,55.7,51.2,55.6,51.2z"/>
</g>
<g>
	<path class="st7" d="M75.2,56c-0.1,0-0.2,0-0.2-0.1c0-0.1-0.7-1.4,0.7-3.9c0.1-0.1,0.2-0.2,0.3-0.1c0.1,0.1,0.2,0.2,0.1,0.3
		c-1.2,2.2-0.7,3.4-0.7,3.4c0.1,0.1,0,0.3-0.1,0.3C75.3,56,75.3,56,75.2,56z"/>
</g>
<g>
	<path class="st7" d="M35.9,36.2c-0.1,0-0.1,0-0.2-0.1c-0.1-0.1-0.1-0.3,0-0.4c0.8-0.8,1.6-1.6,2.4-2.2c0.1-0.1,0.3-0.1,0.4,0
		c0.1,0.1,0.1,0.3,0,0.4c-0.8,0.6-1.6,1.4-2.4,2.2C36,36.2,35.9,36.2,35.9,36.2z"/>
</g>
<g>
	<path class="st7" d="M33.7,38.9c0,0-0.1,0-0.1,0c-0.1-0.1-0.1-0.2-0.1-0.3c0.4-0.6,0.9-1.2,1.3-1.7c0.1-0.1,0.2-0.1,0.4,0
		c0.1,0.1,0.1,0.2,0,0.4c-0.5,0.5-0.9,1.1-1.3,1.7C33.9,38.8,33.8,38.9,33.7,38.9z"/>
</g>
<g>
	<path class="st7" d="M28.7,50.8C28.7,50.8,28.7,50.8,28.7,50.8c-0.2,0-0.3-0.2-0.2-0.3c0-0.1,1-5.4,4.1-10.6
		c0.1-0.1,0.2-0.2,0.3-0.1c0.1,0.1,0.2,0.2,0.1,0.3C29.9,45.3,29,50.5,29,50.6C28.9,50.7,28.8,50.8,28.7,50.8z"/>
</g>
<g>
	<path class="st7" d="M50.4,37.9c-0.1,0-0.2-0.1-0.2-0.2c0-0.1,0-0.3,0.2-0.3c1.3-0.4,2.6-0.6,3.9-0.7c0.1,0,0.3,0.1,0.3,0.2
		c0,0.1-0.1,0.3-0.2,0.3C53,37.3,51.7,37.5,50.4,37.9C50.4,37.9,50.4,37.9,50.4,37.9z"/>
</g>
<g>
	<path class="st7" d="M44.2,40.7c-0.1,0-0.2,0-0.2-0.1c-0.1-0.1,0-0.3,0.1-0.3c1-0.6,2.6-1.6,4.5-2.3c0.1-0.1,0.3,0,0.3,0.1
		c0,0.1,0,0.3-0.1,0.3c-1.9,0.7-3.5,1.6-4.4,2.3C44.3,40.7,44.2,40.7,44.2,40.7z"/>
</g>
<g>
	<path class="st7" d="M33.2,56.7c-0.1,0-0.2,0-0.3-0.1c-3.9-3.6-5.2-8.1-5.3-8.3c-0.1-0.3,0.1-0.5,0.3-0.6c0.3-0.1,0.5,0.1,0.6,0.3
		c0,0,1.3,4.4,5,7.8c0.2,0.2,0.2,0.5,0,0.7C33.4,56.6,33.3,56.7,33.2,56.7z"/>
</g>
</svg>
