<?xml version="1.0" encoding="utf-8"?>
<!-- Generator: Adobe Illustrator 23.0.3, SVG Export Plug-In . SVG Version: 6.00 Build 0)  -->
<svg version="1.1" id="Layer_1" xmlns="http://www.w3.org/2000/svg" xmlns:xlink="http://www.w3.org/1999/xlink" x="0px" y="0px"
	 viewBox="0 0 100 100" style="enable-background:new 0 0 100 100;" xml:space="preserve">
<style type="text/css">
	.st0{fill:#EE3E54;}
	.st1{fill:#F1BC19;}
	.st2{fill:#FCE0A2;}
	.st3{fill:#FBCD59;}
	.st4{fill:#FFFFFF;}
	.st5{fill:#88AE45;}
	.st6{fill:#6F913D;}
	.st7{fill:#472B29;}
	.st8{fill:#9F8066;}
	.st9{fill:#836F61;}
	.st10{fill:#C0D078;}
</style>
<circle class="st0" cx="13" cy="29" r="2"/>
<circle class="st1" cx="77" cy="13" r="1"/>
<circle class="st2" cx="50" cy="50" r="37"/>
<circle class="st1" cx="83" cy="15" r="4"/>
<circle class="st0" cx="87" cy="24" r="2"/>
<circle class="st3" cx="81" cy="76" r="2"/>
<circle class="st3" cx="15" cy="63" r="4"/>
<circle class="st0" cx="25" cy="87" r="2"/>
<circle class="st4" cx="18.5" cy="53.5" r="2.5"/>
<circle class="st1" cx="21" cy="67" r="1"/>
<circle class="st4" cx="80" cy="34" r="1"/>
<path class="st5" d="M73.5,47.3c-1-1-1.5-2.4-1.5-3.9c0,0,0,0,0,0c0-7.9-3.8-14.3-8.6-14.3c-5.7,0-8.6,5.7-13.4,5.7S42.4,29,36.6,29
	c-4.8,0-8.6,6.4-8.6,14.3c0,0,0,0,0,0c0,1.5-0.5,2.9-1.5,3.9c-2.1,2.1-3.2,4.5-3.2,7.1c0,8.2,12,17.7,26.8,17.7s26.8-9.5,26.8-17.7
	C76.8,51.8,75.6,49.4,73.5,47.3z"/>
<path class="st6" d="M36.6,29c-4.8,0-8.6,6.4-8.6,14.3c0,0,0,0,0,0c0,1.5-0.5,2.9-1.5,3.9c-0.3,0.3-0.6,0.6-0.8,0.9
	c2.3,2.4,5.2,3.8,8.2,3.8c7.2,0,13.2-7.7,14-17.6C44.3,33.1,41.5,29,36.6,29z"/>
<path class="st6" d="M73.5,47.3c-1-1-1.5-2.4-1.5-3.9c0,0,0,0,0,0c0-7.9-3.8-14.3-8.6-14.3c-5.1,0-8,4.6-11.9,5.5
	c0.9,9.8,6.8,17.4,14,17.4c3.2,0,6.2-1.5,8.6-4.1C73.9,47.6,73.7,47.4,73.5,47.3z"/>
<path class="st7" d="M46.7,40.6C46.7,40.6,46.7,40.6,46.7,40.6c-0.2-0.1-0.3-0.2-0.2-0.3c0.5-1.6,0.9-3.4,1.1-5.2
	c0-0.1,0.1-0.2,0.3-0.2c0.1,0,0.2,0.1,0.2,0.3c-0.2,1.8-0.6,3.6-1.2,5.3C46.9,40.6,46.8,40.6,46.7,40.6z"/>
<path class="st7" d="M36.9,51.8c-0.1,0-0.2-0.1-0.2-0.2c0-0.1,0-0.3,0.2-0.3c3.5-1,6.6-4,8.6-8.2c0.2-0.4,0.4-0.8,0.6-1.2
	c0.1-0.1,0.2-0.2,0.3-0.1c0.1,0.1,0.2,0.2,0.1,0.3c-0.2,0.4-0.4,0.9-0.6,1.3C43.7,47.6,40.6,50.6,36.9,51.8
	C36.9,51.7,36.9,51.8,36.9,51.8z"/>
<path class="st7" d="M33.9,52.2c-2.1,0-4.1-0.6-6-1.9c-0.1-0.1-0.1-0.2-0.1-0.3c0.1-0.1,0.2-0.1,0.3-0.1c1.8,1.2,3.7,1.8,5.7,1.8
	c0.1,0,0.3,0.1,0.3,0.3S34.1,52.2,33.9,52.2z"/>
<path class="st7" d="M65.5,52.2c-2,0-4-0.6-5.9-1.8c-0.1-0.1-0.2-0.2-0.1-0.3c0.1-0.1,0.2-0.1,0.3-0.1c1.8,1.1,3.7,1.7,5.6,1.7
	c2.8,0,5.5-1.2,7.8-3.4c0.1-0.1,0.3-0.1,0.4,0c0.1,0.1,0.1,0.3,0,0.4C71.2,51,68.4,52.2,65.5,52.2z"/>
<path class="st7" d="M57.6,48.8c-0.1,0-0.1,0-0.2-0.1c-2.7-2.6-4.8-6.4-5.7-10.8c0-0.1,0.1-0.3,0.2-0.3c0.1,0,0.3,0.1,0.3,0.2
	c1,4.3,2.9,8.1,5.6,10.6c0.1,0.1,0.1,0.3,0,0.4C57.8,48.8,57.7,48.8,57.6,48.8z"/>
<ellipse class="st1" cx="37" cy="41" rx="6" ry="7"/>
<path class="st7" d="M34.9,34.7c-0.1,0-0.2-0.1-0.2-0.1c-0.1-0.1,0-0.3,0.1-0.3c0.7-0.3,1.4-0.5,2.2-0.5c0.1,0,0.3,0.1,0.3,0.3
	s-0.1,0.3-0.3,0.3C36.3,34.3,35.6,34.4,34.9,34.7C35,34.7,34.9,34.7,34.9,34.7z"/>
<path class="st7" d="M37,48.3c-3.4,0-6.3-3.3-6.3-7.3c0-2.4,1-4.6,2.7-5.9c0.1-0.1,0.3-0.1,0.4,0c0.1,0.1,0.1,0.3,0,0.4
	c-1.6,1.3-2.5,3.3-2.5,5.6c0,3.7,2.6,6.8,5.8,6.8c0.8,0,1.6-0.2,2.3-0.6c0.1-0.1,0.3,0,0.3,0.1c0.1,0.1,0,0.3-0.1,0.3
	C38.8,48,37.9,48.3,37,48.3z"/>
<path class="st7" d="M40.7,46.8c-0.1,0-0.1,0-0.2-0.1c-0.1-0.1-0.1-0.3,0-0.4c1.4-1.3,2.2-3.2,2.2-5.4c0-3.1-1.8-5.8-4.3-6.5
	c-0.1,0-0.2-0.2-0.2-0.3c0-0.1,0.2-0.2,0.3-0.2c2.8,0.8,4.7,3.7,4.7,7c0,2.3-0.9,4.3-2.4,5.7C40.8,46.8,40.7,46.8,40.7,46.8z"/>
<ellipse class="st8" cx="47" cy="49.6" rx="1.7" ry="2.4"/>
<path class="st7" d="M47,52.3c-1.1,0-2-1.2-2-2.6c0-0.5,0.1-0.9,0.3-1.3c0.1-0.1,0.2-0.2,0.3-0.1c0.1,0.1,0.2,0.2,0.1,0.3
	c-0.1,0.3-0.2,0.7-0.2,1.1c0,1.2,0.7,2.1,1.5,2.1c0.1,0,0.3,0.1,0.3,0.3S47.1,52.3,47,52.3z"/>
<path class="st7" d="M48.3,51.4c0,0-0.1,0-0.1,0c-0.1-0.1-0.2-0.2-0.1-0.3c0.2-0.4,0.3-0.9,0.3-1.3c0-1.2-0.7-2.1-1.5-2.1
	c-0.3,0-0.5,0.1-0.7,0.3c-0.1,0.1-0.3,0.1-0.4,0c-0.1-0.1-0.1-0.3,0-0.4c0.3-0.3,0.7-0.4,1-0.4c1.1,0,2,1.2,2,2.6
	c0,0.6-0.1,1.1-0.4,1.6C48.5,51.3,48.4,51.4,48.3,51.4z"/>
<ellipse class="st8" cx="52.7" cy="49.6" rx="1.7" ry="2.4"/>
<path class="st7" d="M52.7,52.3c-1.1,0-2-1.2-2-2.6s0.9-2.6,2-2.6c0.5,0,0.9,0.2,1.3,0.6c0.1,0.1,0.1,0.3,0,0.4
	c-0.1,0.1-0.3,0.1-0.4,0c-0.2-0.2-0.5-0.5-0.9-0.5c-0.8,0-1.5,1-1.5,2.1s0.7,2.1,1.5,2.1c0.8,0,1.5-1,1.5-2.1c0-0.1,0.1-0.3,0.3-0.3
	s0.3,0.1,0.3,0.3C54.7,51.1,53.8,52.3,52.7,52.3z"/>
<ellipse class="st9" cx="37" cy="40.9" rx="5" ry="2.4"/>
<path class="st7" d="M37,43.6c-2.9,0-5.3-1.2-5.3-2.6c0-0.7,0.6-1.4,1.6-1.9c0.1-0.1,0.3,0,0.3,0.1s0,0.3-0.1,0.3
	c-0.8,0.4-1.3,0.9-1.3,1.5c0,1.2,2.2,2.1,4.8,2.1c0.9,0,1.8-0.1,2.6-0.4c0.1,0,0.3,0,0.3,0.2s0,0.3-0.2,0.3
	C38.9,43.5,38,43.6,37,43.6z"/>
<path class="st7" d="M41,42.7c-0.1,0-0.2,0-0.2-0.1c-0.1-0.1,0-0.3,0.1-0.3c0.4-0.3,0.9-0.7,0.9-1.2c0-0.9-1.4-1.8-3.4-2.1
	c-0.1,0-0.2-0.1-0.2-0.3c0-0.1,0.1-0.2,0.3-0.2c2.3,0.3,3.9,1.3,3.9,2.5c0,0.6-0.4,1.2-1.2,1.7C41.1,42.6,41,42.7,41,42.7z"/>
<g>
	<path class="st7" d="M35.2,39c-0.1,0-0.2-0.1-0.2-0.2c0-0.1,0.1-0.3,0.2-0.3c0.6-0.1,1.2-0.2,1.9-0.2c0.1,0,0.3,0.1,0.3,0.3
		s-0.1,0.3-0.3,0.3C36.4,38.8,35.8,38.9,35.2,39C35.2,39,35.2,39,35.2,39z"/>
</g>
<g>
	<ellipse class="st1" cx="63" cy="41" rx="6" ry="7"/>
</g>
<g>
	<path class="st7" d="M63,48.3c-0.1,0-0.3-0.1-0.3-0.3s0.1-0.3,0.3-0.3c0.7,0,1.4-0.1,2-0.4c0.1-0.1,0.3,0,0.3,0.1
		c0.1,0.1,0,0.3-0.1,0.3C64.5,48.1,63.8,48.3,63,48.3z"/>
</g>
<g>
	<path class="st7" d="M66.4,47c-0.1,0-0.1,0-0.2-0.1c-0.1-0.1-0.1-0.3,0-0.4c1.6-1.3,2.5-3.3,2.5-5.6c0-3.7-2.6-6.8-5.8-6.8
		c-0.8,0-1.6,0.2-2.3,0.6c-0.1,0.1-0.3,0-0.3-0.1c-0.1-0.1,0-0.3,0.1-0.3c0.8-0.4,1.7-0.6,2.6-0.6c3.4,0,6.3,3.3,6.3,7.3
		c0,2.4-1,4.6-2.7,5.9C66.5,47,66.5,47,66.4,47z"/>
</g>
<g>
	<path class="st7" d="M61.5,48C61.5,48,61.4,48,61.5,48c-2.8-0.8-4.7-3.7-4.7-7c0-2.3,0.9-4.3,2.4-5.7c0.1-0.1,0.3-0.1,0.4,0
		c0.1,0.1,0.1,0.3,0,0.4c-1.4,1.3-2.2,3.2-2.2,5.4c0,3.1,1.8,5.8,4.3,6.5c0.1,0,0.2,0.2,0.2,0.3C61.7,48,61.6,48,61.5,48z"/>
</g>
<g>
	<ellipse class="st8" cx="63" cy="41.1" rx="5" ry="2.4"/>
</g>
<g>
	<path class="st9" d="M60.4,39c0.8-0.2,1.7-0.4,2.6-0.4c2.8,0,5,1.1,5,2.4c0,0.7-0.6,1.3-1.5,1.7"/>
	<path class="st7" d="M66.5,43c-0.1,0-0.2-0.1-0.2-0.1c-0.1-0.1,0-0.3,0.1-0.3c0.8-0.4,1.3-0.9,1.3-1.5c0-1.2-2.2-2.1-4.8-2.1
		c-0.9,0-1.8,0.1-2.6,0.4c-0.1,0-0.3,0-0.3-0.2c0-0.1,0-0.3,0.2-0.3c0.8-0.2,1.8-0.4,2.7-0.4c2.9,0,5.2,1.2,5.2,2.6
		c0,0.7-0.6,1.4-1.6,1.9C66.6,43,66.6,43,66.5,43z"/>
</g>
<g>
	<path class="st7" d="M61.7,43.6C61.6,43.6,61.6,43.6,61.7,43.6c-2.4-0.3-3.9-1.3-3.9-2.6c0-0.6,0.4-1.2,1.2-1.7
		c0.1-0.1,0.3,0,0.3,0.1s0,0.3-0.1,0.3c-0.4,0.3-0.9,0.7-0.9,1.2c0,0.9,1.4,1.8,3.4,2.1c0.1,0,0.2,0.1,0.2,0.3
		C61.9,43.5,61.8,43.6,61.7,43.6z"/>
</g>
<g>
	<path class="st7" d="M63,43.7c-0.1,0-0.3-0.1-0.3-0.3s0.1-0.3,0.3-0.3c0.6,0,1.2-0.1,1.8-0.2c0.1,0,0.3,0.1,0.3,0.2
		c0,0.1-0.1,0.3-0.2,0.3C64.3,43.6,63.7,43.7,63,43.7z"/>
</g>
<g>
	<path class="st10" d="M51,60.5c-10.6,0-20.3-2.1-27.7-5.7C23.8,62.8,35.5,72,50,72c13.9,0,25.3-8.7,26.6-16.2
		C69.5,58.7,60.6,60.5,51,60.5z"/>
</g>
<g>
	<path class="st7" d="M63.4,30.4c3.9,0,7.2,5.9,7.2,13c0,1.9,0.7,3.6,1.9,4.9c1.9,1.9,2.8,4,2.8,6.1c0,7.4-11.3,16.3-25.4,16.3
		s-25.4-8.9-25.4-16.3c0-2.1,1-4.2,2.8-6.1c1.3-1.3,1.9-3,1.9-4.9c0-7,3.3-12.9,7.2-12.9c2.6,0,4.5,1.4,6.5,2.8
		c2,1.4,4.1,2.9,6.9,2.9s4.8-1.5,6.9-2.9C58.9,31.8,60.8,30.4,63.4,30.4 M63.4,29c-5.7,0-8.6,5.7-13.4,5.7S42.4,29,36.6,29
		c-4.8,0-8.6,6.4-8.6,14.3c0,0,0,0,0,0c0,1.5-0.5,2.9-1.5,3.9c-2.1,2.1-3.2,4.5-3.2,7.1c0,8.2,12,17.7,26.8,17.7s26.8-9.5,26.8-17.7
		c0-2.6-1.2-5-3.2-7.1c-1-1-1.5-2.4-1.5-3.9c0,0,0,0,0,0C72,35.4,68.1,29,63.4,29L63.4,29z"/>
</g>
<g>
	<path class="st7" d="M50.7,60.9c-1,0-2,0-3-0.1c-0.3,0-0.5-0.2-0.5-0.5c0-0.3,0.2-0.5,0.5-0.5c9.3,0.4,18.7-1,27.7-4.2
		c0.3-0.1,0.5,0,0.6,0.3s0,0.5-0.3,0.6C67.6,59.4,59.1,60.9,50.7,60.9z"/>
</g>
<g>
	<path class="st7" d="M44.8,60.6C44.8,60.6,44.8,60.6,44.8,60.6c-3.7-0.3-7.2-0.8-10.7-1.6c-0.3-0.1-0.4-0.3-0.4-0.6
		c0.1-0.3,0.3-0.4,0.6-0.4c3.4,0.8,6.9,1.3,10.5,1.6c0.3,0,0.5,0.3,0.5,0.5C45.3,60.4,45.1,60.6,44.8,60.6z"/>
</g>
<g>
	<path class="st7" d="M31.5,58.3c0,0-0.1,0-0.1,0c-1.8-0.5-3.5-1-5.1-1.6c-0.3-0.1-0.4-0.4-0.3-0.6c0.1-0.3,0.4-0.4,0.6-0.3
		c1.5,0.6,3.2,1.1,5,1.6c0.3,0.1,0.4,0.3,0.3,0.6C31.9,58.2,31.7,58.3,31.5,58.3z"/>
</g>
<g>
	<path class="st7" d="M54.5,64h-10c-0.3,0-0.5-0.2-0.5-0.5s0.2-0.5,0.5-0.5h10c0.3,0,0.5,0.2,0.5,0.5S54.8,64,54.5,64z"/>
</g>
</svg>
