<?xml version="1.0" encoding="utf-8"?>
<!-- Generator: Adobe Illustrator 23.0.3, SVG Export Plug-In . SVG Version: 6.00 Build 0)  -->
<svg version="1.1" id="Layer_1" xmlns="http://www.w3.org/2000/svg" xmlns:xlink="http://www.w3.org/1999/xlink" x="0px" y="0px"
	 viewBox="0 0 100 100" style="enable-background:new 0 0 100 100;" xml:space="preserve">
<style type="text/css">
	.st0{fill:#F1BC19;}
	.st1{fill:#E4E4F9;}
	.st2{fill:#8889B9;}
	.st3{fill:#FBCD59;}
	.st4{fill:#FFFFFF;}
	.st5{fill:#EAB436;}
	.st6{fill:#9F8066;}
	.st7{fill:#CE942B;}
	.st8{fill:#FDFCEF;}
	.st9{fill:#472B29;}
	.st10{fill:#836F61;}
</style>
<circle class="st0" cx="77" cy="13" r="1"/>
<circle class="st1" cx="50" cy="50" r="37"/>
<circle class="st0" cx="83" cy="15" r="4"/>
<circle class="st2" cx="87" cy="24" r="2"/>
<circle class="st3" cx="81" cy="76" r="2"/>
<circle class="st3" cx="15" cy="63" r="4"/>
<circle class="st2" cx="25" cy="87" r="2"/>
<circle class="st4" cx="79.5" cy="33.5" r="1.5"/>
<path class="st5" d="M70.1,27.2c-3.3,0.6-6.3,2.5-8,3.8c-3.6-2.6-7.8-4.2-11.9-4.2c-4.2,0-8.5,1.7-12.1,4.5c-1.7-1.3-4.7-3.3-8.3-4
	c-5.4-1-3.2,6.2-1.1,8.2c1.9,1.8,0.5,2.8,2.2,5.1c-1.3,3.1-1.8,8.4-1.3,11.9c1,7.3,4.4,12.9,8.9,16.4c0.2,0.8,0.4,1.5,0.8,2.3
	c2.8,5.8,6.4,6.9,10.2,7v0c0.2,0,0.3,0,0.5,0c0.2,0,0.3,0,0.5,0v0c3.8-0.1,7.5-1.2,10.2-7c0.3-0.7,0.6-1.5,0.8-2.3
	c4.3-3.4,7.9-8.8,9.4-16.4c0.7-3.7,0.1-9.3-1.4-12.6c1-1.8,0.1-2.8,1.8-4.4C73.4,33.4,75.5,26.2,70.1,27.2z"/>
<path class="st6" d="M32.4,40.3c0,0,6-6.9,3.8-9.5c-2.9-3.4-6.5-3-7.5-2.8s-1.6,0.8-1.5,2.3s3.3,6.3,3.3,6.3l1,3.6L32.4,40.3z"/>
<path class="st6" d="M68.1,40.3c0,0-6-6.9-3.8-9.5c2.9-3.4,6.5-3,7.5-2.8s1.6,0.8,1.5,2.3s-3.3,6.3-3.3,6.3l-1,3.6L68.1,40.3z"/>
<path class="st7" d="M50,62.6l6.5-2l-1.2-5.8c-0.4-2.1-2.6-4.5-5.3-4.6v0c0,0,0,0-0.1,0s0,0-0.1,0v0c-2.7,0.1-4.8,2.5-5.2,4.6
	l-1.1,5.8l6.4,2v0L50,62.6L50,62.6L50,62.6z"/>
<path class="st8" d="M36,48.4c-0.3-2.3,0.3-5.2,3.6-7.8c3.4-2.7,3.1-0.1,2.9,1.4s0,4.4,0.5,5.4s1.5,3.6-0.1,4.4S36.8,51.5,36,48.4z"
	/>
<path class="st8" d="M63.2,58.6C62,62.1,62.5,63.5,60,66c-2.9,3-5.1,0.8-3.9-1c1.5-2.3-2.8-4.3-4.8-5.3c-0.6-0.3-1.3-0.3-1.9,0
	c-2.1,1-6.8,2.7-5.3,5c1.2,1.8-0.5,4.2-3.4,1.3c-2.5-2.5-2-4-3.2-7.4c-1.2-3.5-4.7-2.5-4.7,0.5s2,4.9,5.9,8.9
	c2.7,8.3,10.6,9.7,11.6,9.9v0c0,0,0,0,0.1,0c0,0,0.1,0,0.1,0v0c1-0.2,8.9-1.6,11.6-9.9c3.9-4,5.9-5.9,5.9-8.9
	C67.9,56.1,64.4,55.1,63.2,58.6z"/>
<path class="st9" d="M50.3,27.5c3.6,0,7.7,1.5,11.3,4.2l0.8,0.6l0.8-0.6c1.8-1.3,4.5-3,7.6-3.6c0.3-0.1,0.5-0.1,0.7-0.1
	c0.7,0,0.8,0.3,0.9,0.5c0.5,1.3-0.6,4.5-1.8,5.6c-1.3,1.3-1.5,2.4-1.6,3.3c-0.1,0.5-0.1,1-0.4,1.5l-0.4,0.6l0.3,0.6
	c1.4,3.1,2.5,8.7,1.8,12.2c-1.5,8-6,12.9-9.5,15.7l-0.4,0.3l-0.1,0.5c-0.1,0.7-0.4,1.4-0.7,2c-2.4,5.1-5.4,6.2-9.2,6.3l-0.3,0
	c0,0,0,0,0,0l-0.2,0l-0.1,0l-0.4,0c-3.8-0.1-6.8-1.3-9.2-6.3c-0.3-0.6-0.5-1.3-0.7-2l-0.1-0.5l-0.4-0.3c-5.2-4.1-8.8-10.2-9.6-16.3
	c-0.5-3.5,1.5-8.9,2.4-11l0.3-0.7l-0.5-0.6c-0.6-0.8-0.7-1.4-0.8-2c-0.1-0.9-0.3-2-1.6-3.3c-1.2-1.1-2.3-4.3-1.8-5.6
	c0.1-0.2,0.2-0.5,0.9-0.5c0.2,0,0.5,0,0.7,0.1c3.4,0.7,6.4,2.7,7.9,3.8l0.9,0.7l0.9-0.7C42.4,29.1,46.5,27.5,50.3,27.5 M50.3,26.1
	c-4.3,0-8.7,1.8-12.3,4.7c-1.7-1.3-4.8-3.4-8.5-4.1c-0.4-0.1-0.7-0.1-1-0.1c-4.2,0-2.2,6.5-0.1,8.5c1.9,1.8,0.5,2.9,2.3,5.2
	c-1.3,3.1-3,8.2-2.5,11.7c1,7.4,5.6,13.6,10.2,17.2c0.2,0.8,0.4,1.6,0.8,2.3c2.8,5.9,6.6,7,10.4,7.1v0c0.2,0,0.3,0,0.5,0
	c0.2,0,0.3,0,0.5,0v0c3.8-0.1,7.6-1.2,10.4-7.1c0.4-0.7,0.6-1.5,0.8-2.3c4.4-3.5,8.6-8.8,10-16.6c0.7-3.8-0.4-9.7-1.9-13
	c1-1.9,0.1-2.9,1.8-4.5c2-2,4.1-8.5-0.1-8.5c-0.3,0-0.6,0-1,0.1c-3.4,0.7-6.4,2.5-8.2,3.9C58.7,27.9,54.4,26.1,50.3,26.1L50.3,26.1z
	"/>
<path class="st9" d="M36.5,47.1c0,0,0-2,5,0c1,2,1,4,1,4S37.5,52.1,36.5,47.1z"/>
<path class="st9" d="M56.2,73.1c-0.8,0-1.4-0.1-1.4-0.1c-1.5-0.3-2.8-1.1-4.2-1.9l-0.5-0.3c-0.6,0.3-2.2,1.2-4.6,1.8
	c-3.2,0.8-6.2-2-6.3-2.1l0.7-0.7c0,0,2.7,2.6,5.4,1.9c2.9-0.7,4.6-1.8,4.6-1.8c0.2-0.1,0.4-0.1,0.5,0l0.7,0.4
	c1.4,0.8,2.6,1.5,3.9,1.8c0,0,3,0.6,4.4-1.2l0.8,0.6C59.1,72.8,57.4,73.1,56.2,73.1z"/>
<ellipse transform="matrix(0.9233 -0.384 0.384 0.9233 -9.3727 19.0668)" class="st10" cx="43.1" cy="33" rx="1.6" ry="0.6"/>
<ellipse transform="matrix(0.981 -0.1942 0.1942 0.981 -5.0708 9.5338)" class="st10" cx="46.1" cy="30.6" rx="2" ry="0.8"/>
<ellipse transform="matrix(0.981 -0.1942 0.1942 0.981 -5.8984 9.4579)" class="st10" cx="45.3" cy="34.8" rx="1.6" ry="0.6"/>
<ellipse transform="matrix(0.886 -0.4636 0.4636 0.886 -12.1026 24.9544)" class="st10" cx="44.7" cy="37.1" rx="1.4" ry="0.5"/>
<ellipse transform="matrix(0.7425 -0.6699 0.6699 0.7425 -16.1132 35.8628)" class="st10" cx="38.6" cy="38.9" rx="1.4" ry="0.5"/>
<path class="st10" d="M36.1,41.7c0.3,0.2,0.1,0.8-0.3,1.4c-0.4,0.6-1,2-1.2,1.8c-0.3-0.2-0.1-1.8,0.3-2.4S35.9,41.5,36.1,41.7z"/>
<path class="st10" d="M33.3,42.2c0.3,0.2,0.1,2.8-0.3,3.4s-1,1-1.2,0.8c-0.3-0.2-0.1-2.8,0.3-3.4C32.5,42.4,33.1,42,33.3,42.2z"/>
<ellipse transform="matrix(0.2548 -0.967 0.967 0.2548 -23.7607 69.9299)" class="st10" cx="33.5" cy="50.4" rx="3.2" ry="1"/>
<ellipse transform="matrix(0.1012 -0.9949 0.9949 0.1012 -20.8976 76.0156)" class="st10" cx="31.6" cy="49.6" rx="2" ry="0.6"/>
<ellipse transform="matrix(0.7731 -0.6343 0.6343 0.7731 -30.3281 35.8546)" class="st10" cx="35" cy="60.3" rx="0.6" ry="2"/>
<ellipse transform="matrix(0.9939 -0.1103 0.1103 0.9939 -5.9596 3.9099)" class="st10" cx="32.4" cy="55.8" rx="0.6" ry="2"/>
<ellipse class="st10" cx="47.5" cy="33.6" rx="1" ry="0.5"/>
<ellipse transform="matrix(0.866 -0.5 0.5 0.866 -10.6822 24.7139)" class="st10" cx="40.8" cy="32.3" rx="1" ry="0.5"/>
<ellipse transform="matrix(0.866 -0.5 0.5 0.866 -12.5582 24.5524)" class="st10" cx="39.5" cy="35.7" rx="1.2" ry="0.6"/>
<ellipse transform="matrix(0.866 -0.5 0.5 0.866 -13.0811 25.8248)" class="st10" cx="41.6" cy="37.3" rx="1.2" ry="0.6"/>
<ellipse class="st10" cx="48.1" cy="39.4" rx="1" ry="0.7"/>
<ellipse transform="matrix(0.9992 -4.119556e-02 4.119556e-02 0.9992 -2.2732 1.4558)" class="st10" cx="34.2" cy="55.9" rx="0.4" ry="1"/>
<ellipse transform="matrix(0.9992 -4.119556e-02 4.119556e-02 0.9992 -2.1378 1.5148)" class="st10" cx="35.7" cy="52.6" rx="0.6" ry="1"/>
<ellipse transform="matrix(0.9689 -0.2475 0.2475 0.9689 -12.655 10.7481)" class="st10" cx="36.4" cy="55.7" rx="0.4" ry="0.9"/>
<ellipse transform="matrix(0.76 -0.6499 0.6499 0.76 -25.9234 37.4554)" class="st10" cx="37.8" cy="53.8" rx="0.9" ry="0.4"/>
<ellipse transform="matrix(0.5337 -0.8457 0.8457 0.5337 -27.9474 58.9416)" class="st10" cx="39.5" cy="54.8" rx="0.9" ry="0.4"/>
<ellipse transform="matrix(0.5337 -0.8457 0.8457 0.5337 -27.3975 60.7066)" class="st10" cx="41.3" cy="55.2" rx="0.9" ry="0.4"/>
<ellipse transform="matrix(0.5337 -0.8457 0.8457 0.5337 -32.9985 60.5452)" class="st10" cx="38.4" cy="60.2" rx="0.9" ry="0.4"/>
<ellipse transform="matrix(0.5337 -0.8457 0.8457 0.5337 -30.189 59.6262)" class="st10" cx="39" cy="57.2" rx="0.9" ry="0.4"/>
<ellipse transform="matrix(0.6601 -0.7512 0.7512 0.6601 -31.4876 47.0502)" class="st10" cx="36.2" cy="58.3" rx="0.8" ry="1.3"/>
<ellipse class="st10" cx="49.6" cy="38.9" rx="1" ry="0.7"/>
<ellipse class="st10" cx="46.6" cy="38.1" rx="0.9" ry="0.6"/>
<ellipse class="st10" cx="45.1" cy="40.1" rx="0.9" ry="0.8"/>
<ellipse class="st10" cx="46.1" cy="40.7" rx="0.9" ry="0.8"/>
<ellipse class="st10" cx="45.8" cy="41.8" rx="0.6" ry="0.6"/>
<ellipse class="st10" cx="48.1" cy="42.3" rx="0.8" ry="0.7"/>
<ellipse class="st10" cx="46.4" cy="45.8" rx="0.8" ry="0.7"/>
<ellipse class="st10" cx="48.5" cy="46.9" rx="0.8" ry="0.7"/>
<ellipse class="st10" cx="50.1" cy="42.7" rx="0.9" ry="0.8"/>
<ellipse class="st10" cx="48.6" cy="35.9" rx="1.3" ry="0.6"/>
<g>
	<ellipse transform="matrix(0.384 -0.9233 0.9233 0.384 4.7509 73.1362)" class="st10" cx="57.2" cy="33" rx="0.6" ry="1.6"/>
	<ellipse transform="matrix(0.1942 -0.981 0.981 0.1942 13.597 77.8111)" class="st10" cx="54.2" cy="30.6" rx="0.8" ry="2"/>
	<ellipse transform="matrix(0.1942 -0.981 0.981 0.1942 10.1406 81.9678)" class="st10" cx="55" cy="34.8" rx="0.6" ry="1.6"/>
	<ellipse transform="matrix(0.4636 -0.886 0.886 0.4636 -3.0741 69.1088)" class="st10" cx="55.5" cy="37.1" rx="0.5" ry="1.4"/>
	<ellipse transform="matrix(0.6699 -0.7425 0.7425 0.6699 -8.5136 58.6212)" class="st10" cx="61.7" cy="38.9" rx="0.5" ry="1.4"/>
	<path class="st10" d="M64.1,41.7c-0.3,0.2-0.1,0.8,0.3,1.4c0.4,0.6,1,2,1.2,1.8c0.3-0.2,0.1-1.8-0.3-2.4S64.4,41.5,64.1,41.7z"/>
	<path class="st10" d="M66.9,42.2c-0.3,0.2-0.1,2.8,0.3,3.4s1,1,1.2,0.8c0.3-0.2,0.1-2.8-0.3-3.4C67.7,42.4,67.2,42,66.9,42.2z"/>
	<ellipse transform="matrix(0.967 -0.2548 0.2548 0.967 -10.6346 18.6704)" class="st10" cx="66.8" cy="50.4" rx="1" ry="3.2"/>
	<ellipse transform="matrix(0.9949 -0.1012 0.1012 0.9949 -4.665 7.1994)" class="st10" cx="68.6" cy="49.6" rx="0.6" ry="2"/>
	<ellipse transform="matrix(0.6343 -0.7731 0.7731 0.6343 -22.7464 72.5384)" class="st10" cx="65.3" cy="60.3" rx="2" ry="0.6"/>
	<ellipse transform="matrix(0.1102 -0.9939 0.9939 0.1102 4.9164 117.1434)" class="st10" cx="67.9" cy="55.8" rx="2" ry="0.6"/>
	<ellipse class="st10" cx="52.8" cy="33.6" rx="1" ry="0.5"/>
	<ellipse transform="matrix(0.5 -0.866 0.866 0.5 1.7694 67.6505)" class="st10" cx="59.5" cy="32.3" rx="0.5" ry="1"/>
	<ellipse transform="matrix(0.5 -0.866 0.866 0.5 -0.5715 70.4349)" class="st10" cx="60.7" cy="35.7" rx="0.6" ry="1.2"/>
	<ellipse transform="matrix(0.5 -0.866 0.866 0.5 -3.024 69.411)" class="st10" cx="58.6" cy="37.3" rx="0.6" ry="1.2"/>
	<ellipse class="st10" cx="52.1" cy="39.4" rx="1" ry="0.7"/>
	
		<ellipse transform="matrix(4.119556e-02 -0.9992 0.9992 4.119556e-02 7.51 119.5822)" class="st10" cx="66.1" cy="55.9" rx="1" ry="0.4"/>
	
		<ellipse transform="matrix(4.119556e-02 -0.9992 0.9992 4.119556e-02 9.325 114.9636)" class="st10" cx="64.6" cy="52.6" rx="1" ry="0.6"/>
	<ellipse transform="matrix(0.2475 -0.9689 0.9689 0.2475 -5.9629 103.7662)" class="st10" cx="63.8" cy="55.7" rx="0.9" ry="0.4"/>
	<ellipse transform="matrix(0.6499 -0.76 0.76 0.6499 -19.0322 66.3439)" class="st10" cx="62.5" cy="53.8" rx="0.4" ry="0.9"/>
	<ellipse transform="matrix(0.8457 -0.5337 0.5337 0.8457 -19.8733 40.8928)" class="st10" cx="60.8" cy="54.8" rx="0.4" ry="0.9"/>
	<ellipse transform="matrix(0.8457 -0.5337 0.5337 0.8457 -20.367 39.9513)" class="st10" cx="58.9" cy="55.2" rx="0.4" ry="0.9"/>
	<ellipse transform="matrix(0.8457 -0.5337 0.5337 0.8457 -22.581 42.2951)" class="st10" cx="61.8" cy="60.2" rx="0.4" ry="0.9"/>
	<ellipse transform="matrix(0.8457 -0.5337 0.5337 0.8457 -21.0636 41.5261)" class="st10" cx="61.3" cy="57.2" rx="0.4" ry="0.9"/>
	<ellipse transform="matrix(0.7512 -0.6601 0.6601 0.7512 -22.5748 56.7622)" class="st10" cx="64" cy="58.3" rx="1.3" ry="0.8"/>
	<ellipse class="st10" cx="50.8" cy="37.4" rx="1" ry="0.7"/>
	<ellipse class="st10" cx="53.6" cy="38.1" rx="0.9" ry="0.6"/>
	<ellipse class="st10" cx="55.1" cy="40.1" rx="0.9" ry="0.8"/>
	<ellipse class="st10" cx="54.1" cy="40.7" rx="0.9" ry="0.8"/>
	<ellipse class="st10" cx="54.5" cy="41.8" rx="0.6" ry="0.6"/>
	<ellipse class="st10" cx="52.1" cy="42.3" rx="0.8" ry="0.7"/>
	<ellipse class="st10" cx="53.9" cy="45.8" rx="0.8" ry="0.7"/>
	<ellipse class="st10" cx="51.8" cy="46.9" rx="0.8" ry="0.7"/>
	<ellipse class="st10" cx="51.6" cy="40.6" rx="0.9" ry="0.8"/>
	<ellipse class="st10" cx="51.9" cy="36.5" rx="1.3" ry="0.6"/>
</g>
<g>
	<path class="st3" d="M41.5,47.1c-1.7-0.7-2.8-0.9-3.6-0.9c-0.3,0.4-0.4,0.9-0.4,1.4c0,1.4,1.1,2.5,2.5,2.5c0.9,0,1.7-0.5,2.1-1.2
		C42,48.3,41.8,47.7,41.5,47.1z"/>
</g>
<g>
	<path class="st10" d="M55,64l-5,3.6L45,64c-0.6-0.5-1-1.2-1-2v-1.4c4.1,1.4,8,1.1,12,0V62C56,62.8,55.6,63.5,55,64z"/>
	<path class="st9" d="M50,68.1c-0.1,0-0.2,0-0.3-0.1l-5-3.6c-0.8-0.6-1.2-1.4-1.2-2.4v-1.4c0-0.2,0.1-0.3,0.2-0.4
		c0.1-0.1,0.3-0.1,0.5-0.1c3.6,1.2,7.4,1.2,11.7,0c0.2,0,0.3,0,0.4,0.1s0.2,0.2,0.2,0.4V62c0,0.9-0.5,1.8-1.2,2.4l0,0l-5,3.6
		C50.2,68.1,50.1,68.1,50,68.1z M44.5,61.3V62c0,0.6,0.3,1.2,0.8,1.6L50,67l4.7-3.4c0.5-0.4,0.8-1,0.8-1.6v-0.7
		C51.5,62.3,48,62.3,44.5,61.3z M55,64L55,64L55,64z"/>
</g>
<g>
	<path class="st9" d="M44.7,64.2c-1.4-1.1,0.5-3.6,2.2-0.9c1.5,2.4,1.5,3.7,1.5,3.7L44.7,64.2z"/>
</g>
<g>
	<path class="st9" d="M55.2,64.2c1.3-1.1-0.5-3.6-2.1-0.9c-1.5,2.4-1.5,3.7-1.5,3.7L55.2,64.2z"/>
</g>
<g>
	<path class="st9" d="M39.1,66.1c-0.1,0-0.2-0.1-0.2-0.2c-0.6-2-0.4-4.3,0.6-7c0-0.1,0.2-0.2,0.3-0.1c0.1,0,0.2,0.2,0.1,0.3
		c-1,2.6-1.2,4.8-0.6,6.7C39.4,65.9,39.3,66.1,39.1,66.1C39.2,66.1,39.1,66.1,39.1,66.1z"/>
</g>
<g>
	<path class="st9" d="M40.6,57.4c0,0-0.1,0-0.1,0c-0.1-0.1-0.2-0.2-0.1-0.3c1-2.1,2.2-3.7,2.5-4.1c-0.1-0.5-0.6-2.5-1.4-5.6
		c-3.8-1.9-5.5-0.3-5.6-0.2c-0.1,0.1-0.3,0.1-0.4,0c-0.1-0.1-0.1-0.3,0-0.4c0.1-0.1,2.1-2,6.3,0.2c0.1,0,0.1,0.1,0.1,0.2
		c1,3.7,1.5,5.9,1.5,5.9c0,0.1,0,0.2,0,0.2c0,0-1.4,1.7-2.5,4.1C40.7,57.3,40.7,57.4,40.6,57.4z"/>
</g>
<g>
	<path class="st8" d="M63.9,48.4c0.3-2.3-0.3-5.2-3.6-7.8c-3.4-2.7-3.1-0.1-2.9,1.4s0,4.4-0.5,5.4S55.4,51,57,51.8
		S63.1,51.5,63.9,48.4z"/>
</g>
<g>
	<path class="st9" d="M63.4,47.1c0,0,0-2-5,0c-1,2-1,4-1,4S62.4,52.1,63.4,47.1z"/>
</g>
<g>
	<path class="st3" d="M58.4,47.1c1.7-0.7,2.8-0.9,3.6-0.9c0.3,0.4,0.4,0.9,0.4,1.4c0,1.4-1.1,2.5-2.5,2.5c-0.9,0-1.7-0.5-2.1-1.2
		C57.9,48.3,58.1,47.7,58.4,47.1z"/>
</g>
<g>
	<path class="st9" d="M60.8,66.1C60.7,66.1,60.7,66.1,60.8,66.1c-0.2-0.1-0.3-0.2-0.2-0.3c0.3-1.1,0.4-2.4,0.2-3.8
		c0-0.1,0.1-0.3,0.2-0.3c0.1,0,0.3,0.1,0.3,0.2c0.2,1.5,0.2,2.8-0.2,4C61,66.1,60.9,66.1,60.8,66.1z"/>
</g>
<g>
	<path class="st9" d="M60.5,60.4c-0.1,0-0.2-0.1-0.2-0.2c-0.2-0.8-0.5-1.5-0.9-2.3c-0.1-0.1,0-0.3,0.1-0.3c0.1-0.1,0.3,0,0.3,0.1
		c0.4,0.8,0.7,1.6,0.9,2.4C60.8,60.2,60.7,60.3,60.5,60.4C60.6,60.4,60.5,60.4,60.5,60.4z"/>
</g>
<g>
	<path class="st9" d="M58.9,56.6c-0.1,0-0.2,0-0.2-0.1c-1.1-2-2.1-3.3-2.1-3.3c0-0.1-0.1-0.1,0-0.2c0,0,0.5-2.2,1.5-5.9
		c0-0.1,0.1-0.1,0.1-0.2c4.2-2.2,6.2-0.3,6.3-0.2c0.1,0.1,0.1,0.3,0,0.4c-0.1,0.1-0.3,0.1-0.4,0c-0.1-0.1-1.8-1.7-5.6,0.2
		c-0.8,3.2-1.3,5.2-1.4,5.6c0.3,0.3,1.2,1.6,2.1,3.3c0.1,0.1,0,0.3-0.1,0.3C59,56.6,59,56.6,58.9,56.6z"/>
</g>
<g>
	<ellipse transform="matrix(0.5414 -0.8408 0.8408 0.5414 -17.877 52.393)" class="st10" cx="39.1" cy="42.6" rx="1.2" ry="0.6"/>
</g>
<g>
	<ellipse class="st10" cx="50.2" cy="29.3" rx="1.2" ry="0.6"/>
</g>
<g>
	<ellipse class="st10" cx="50.2" cy="31.8" rx="1.8" ry="0.9"/>
</g>
<g>
	<ellipse transform="matrix(0.4021 -0.9156 0.9156 0.4021 -13.2997 62.603)" class="st10" cx="41.3" cy="41.5" rx="1.5" ry="0.7"/>
</g>
<g>
	<ellipse transform="matrix(0.8408 -0.5414 0.5414 0.8408 -13.3426 39.7934)" class="st10" cx="61" cy="42.6" rx="0.6" ry="1.2"/>
</g>
<g>
	<ellipse transform="matrix(0.9156 -0.4021 0.4021 0.9156 -11.7177 27.1375)" class="st10" cx="58.8" cy="41.5" rx="0.7" ry="1.5"/>
</g>
<g>
	<path class="st9" d="M39.5,47.1c0,0.6,0.4,1,1,1s1-0.4,1-1c-0.7-0.3-1.3-0.5-1.8-0.6C39.6,46.7,39.5,46.9,39.5,47.1z"/>
</g>
<g>
	<path class="st9" d="M58.5,47.1C58.5,47.1,58.5,47.1,58.5,47.1c0,0.6,0.4,1,1,1s1-0.4,1-1c0-0.2-0.1-0.5-0.2-0.6
		C59.8,46.6,59.2,46.8,58.5,47.1z"/>
</g>
<g>
	<path class="st9" d="M34,38c-0.1,0-0.1,0-0.2,0c-0.3-0.1-0.4-0.4-0.3-0.6c0.6-1.7,0.4-3.2-0.5-4.4c-0.2-0.2-0.1-0.5,0.1-0.7
		c0.2-0.2,0.5-0.1,0.7,0.1c1.1,1.5,1.3,3.3,0.6,5.3C34.4,37.9,34.2,38,34,38z"/>
</g>
<g>
	<path class="st9" d="M32.1,31.8c-0.1,0-0.2,0-0.3-0.1c-0.9-0.6-1.7-0.9-1.7-0.9c-0.3-0.1-0.4-0.4-0.3-0.6c0.1-0.3,0.4-0.4,0.6-0.3
		c0,0,0.9,0.3,1.9,1.1c0.2,0.2,0.3,0.5,0.1,0.7C32.4,31.7,32.2,31.8,32.1,31.8z"/>
</g>
<g>
	<path class="st9" d="M66,38c-0.2,0-0.4-0.1-0.5-0.3c-0.6-1.6-0.5-3.1,0.1-4.4c1.1-2.4,3.9-3.4,4-3.4c0.3-0.1,0.5,0,0.6,0.3
		s0,0.5-0.3,0.6c-0.2,0.1-5.1,1.9-3.4,6.6c0.1,0.3,0,0.5-0.3,0.6C66.1,38,66.1,38,66,38z"/>
</g>
<g>
	<path class="st9" d="M31.6,70.3c0,0-0.1,0-0.1,0c-0.1-0.1-0.1-0.2-0.1-0.3c2.7-3.8,8.7-4.6,8.9-4.6c0.1,0,0.3,0.1,0.3,0.2
		s-0.1,0.3-0.2,0.3c-0.1,0-6,0.8-8.6,4.4C31.8,70.2,31.7,70.3,31.6,70.3z"/>
</g>
<g>
	<path class="st9" d="M33.5,72.5c0,0-0.1,0-0.1,0c-0.1-0.1-0.2-0.2-0.1-0.3c2.4-4.3,8.1-5.2,8.3-5.3c0.1,0,0.3,0.1,0.3,0.2
		s-0.1,0.3-0.2,0.3c-0.1,0-5.7,0.9-7.9,5C33.7,72.5,33.6,72.5,33.5,72.5z"/>
</g>
<g>
	<path class="st9" d="M35.5,73.4c0,0-0.1,0-0.1,0c-0.1-0.1-0.1-0.2-0.1-0.3c2.7-3.8,8.1-4.8,8.3-4.9c0.1,0,0.3,0.1,0.3,0.2
		c0,0.1-0.1,0.3-0.2,0.3c-0.1,0-5.4,1-8,4.6C35.7,73.3,35.6,73.4,35.5,73.4z"/>
</g>
<g>
	<path class="st9" d="M68.3,70.4c-0.1,0-0.2,0-0.2-0.1c-2.5-3.6-8.5-4.4-8.6-4.4c-0.1,0-0.2-0.1-0.2-0.3c0-0.1,0.1-0.2,0.3-0.2
		c0.3,0,6.3,0.8,8.9,4.6c0.1,0.1,0.1,0.3-0.1,0.3C68.3,70.4,68.3,70.4,68.3,70.4z"/>
</g>
<g>
	<path class="st9" d="M66.4,72.6c-0.1,0-0.2,0-0.2-0.1c-2.3-4.1-7.9-5-7.9-5c-0.1,0-0.2-0.1-0.2-0.3s0.2-0.2,0.3-0.2
		c0.2,0,5.9,0.9,8.3,5.3c0.1,0.1,0,0.3-0.1,0.3C66.5,72.6,66.4,72.6,66.4,72.6z"/>
</g>
<g>
	<path class="st9" d="M64.4,73.5c-0.1,0-0.2,0-0.2-0.1c-2.5-3.6-7.9-4.6-8-4.6c-0.1,0-0.2-0.2-0.2-0.3c0-0.1,0.2-0.2,0.3-0.2
		c0.2,0,5.6,1.1,8.3,4.9c0.1,0.1,0.1,0.3-0.1,0.3C64.5,73.5,64.4,73.5,64.4,73.5z"/>
</g>
</svg>
