<?xml version="1.0" encoding="utf-8"?>
<!-- Generator: Adobe Illustrator 23.0.3, SVG Export Plug-In . SVG Version: 6.00 Build 0)  -->
<svg version="1.1" id="Layer_1" xmlns="http://www.w3.org/2000/svg" xmlns:xlink="http://www.w3.org/1999/xlink" x="0px" y="0px"
	 viewBox="0 0 100 100" style="enable-background:new 0 0 100 100;" xml:space="preserve">
<style type="text/css">
	.st0{fill:#78A0CF;}
	.st1{fill:#F1BC19;}
	.st2{fill:#CEE1F4;}
	.st3{fill:#FBCD59;}
	.st4{fill:#FFFFFF;}
	.st5{fill:#3678BA;}
	.st6{fill:#C5DEF0;}
	.st7{fill:#472B29;}
</style>
<path class="st0" d="M13,27c-1.1,0-2,0.9-2,2s0.9,2,2,2s2-0.9,2-2S14.1,27,13,27z"/>
<path class="st1" d="M77,12c-0.6,0-1,0.4-1,1s0.4,1,1,1s1-0.4,1-1S77.6,12,77,12z"/>
<path class="st2" d="M50,13c-20.4,0-37,16.6-37,37s16.6,37,37,37s37-16.6,37-37S70.4,13,50,13z"/>
<path class="st1" d="M83,11c-2.2,0-4,1.8-4,4s1.8,4,4,4s4-1.8,4-4S85.2,11,83,11z"/>
<path class="st0" d="M87,22c-1.1,0-2,0.9-2,2s0.9,2,2,2s2-0.9,2-2S88.1,22,87,22z"/>
<path class="st3" d="M81,74c-1.1,0-2,0.9-2,2s0.9,2,2,2s2-0.9,2-2S82.1,74,81,74z M15,59c-2.2,0-4,1.8-4,4c0,2.2,1.8,4,4,4
	s4-1.8,4-4C19,60.8,17.2,59,15,59z"/>
<path class="st0" d="M25,85c-1.1,0-2,0.9-2,2s0.9,2,2,2s2-0.9,2-2S26.1,85,25,85z"/>
<path class="st4" d="M18.5,51c-1.4,0-2.5,1.1-2.5,2.5s1.1,2.5,2.5,2.5s2.5-1.1,2.5-2.5S19.9,51,18.5,51z"/>
<path class="st1" d="M21,66c-0.6,0-1,0.4-1,1s0.4,1,1,1s1-0.4,1-1S21.6,66,21,66z"/>
<path class="st4" d="M80,33c-0.6,0-1,0.4-1,1s0.4,1,1,1s1-0.4,1-1S80.6,33,80,33z"/>
<g>
	<path class="st5" d="M59.6,25.8c-5.1,0.2-9.7,1.4-13.1,3.5l-0.2-0.1c-7.6-6-15.7-0.3-14.9,0.8c0.9,1.2,4.9,0.4,7.4,7
		c-7,11.1-6.5,26.8-5.8,27.7c0,0,0,0.1,0,0.1l2.5,5c0.1,0.2,0.4,0.2,0.5,0c0.6-1.2,2.3-4.5,2.4-4.9c0,0,0,0,0-0.1
		c2.1-13.3,8.9-18.6,15-20.6l0.6-0.8c-0.2,3.3-1.8,6.6-2.1,7.1c-0.7,1.1,1.7,0.6,3,0.1c4.7-1.7,6.9-4.5,8-7.6l0.2,0.2c1,0,1.8,0,2,0
		c9,0,13.8,0.1,13.8-4.8C79,34.8,74.8,25.1,59.6,25.8z"/>
	<path class="st6" d="M63.7,39.7c-0.1,1.3-0.3,2.6-0.7,3.8c0,0,13.5,1.4,16-3.8C78.3,39.7,71.3,39.7,63.7,39.7z M54.1,39.7
		c-0.1,0-5.1-0.4-9.8,2c-10.4,5.3-4.7,7.5-4.6,7.6c-3.6,3.6-5.6,11.6-6.2,15c0.1,0.4,2.1,5.8,2.1,5.8s1.8-2.5,2.8-6
		c2.1-7.2,6.2-18.5,16.2-20.1C54.6,42.2,54.6,39.7,54.1,39.7z"/>
	<path class="st5" d="M33.1,64.8c0,0-8.1,2.7-8.1,8.1c0,0,0.8,1.9,2.7,0c1.3-1.3,8.1,0,8.1-2.7L33.1,64.8z M38.5,64.8l-2.7,5.4
		c0,2.7,6.7,1.3,8.1,2.7c0,0.7,0.6,1.3,1.3,1.3s1.3-0.6,1.3-1.3C46.6,67.5,38.5,64.8,38.5,64.8z"/>
	<path class="st7" d="M33.6,65.8C33.6,65.8,33.6,65.8,33.6,65.8c-0.2,0-0.3-0.1-0.3-0.3c0.1-1.8,0.5-3.9,1.1-6.1
		c0-0.1,0.2-0.2,0.3-0.2c0.1,0,0.2,0.2,0.2,0.3c-0.6,2.2-1,4.2-1.1,6C33.9,65.7,33.8,65.8,33.6,65.8z M35.5,57.4
		C35.5,57.4,35.5,57.4,35.5,57.4c-0.2-0.1-0.3-0.2-0.2-0.3c0.3-0.8,0.6-1.7,1-2.5c0.1-0.1,0.2-0.2,0.3-0.1c0.1,0.1,0.2,0.2,0.1,0.3
		c-0.4,0.8-0.7,1.6-1,2.4C35.7,57.4,35.6,57.4,35.5,57.4z M37.2,53.5c0,0-0.1,0-0.1,0c-0.1-0.1-0.2-0.2-0.1-0.3
		c0.8-1.7,1.7-2.9,2.5-3.7c-0.9-0.3-1.5-0.9-1.7-1.5c-0.4-1.3,2-4.2,6.2-6.2c0.1-0.1,0.3,0,0.3,0.1c0.1,0.1,0,0.3-0.1,0.3
		c-4.1,1.9-6.3,4.6-6,5.6c0.2,0.8,1.1,1.2,1.7,1.4c0.1,0,0.2,0.1,0.2,0.2c0,0.1,0,0.2-0.1,0.2c-0.8,0.6-1.7,2-2.7,3.8
		C37.4,53.4,37.3,53.5,37.2,53.5z M46.5,41.3c-0.1,0-0.2-0.1-0.2-0.2c0-0.1,0-0.3,0.2-0.3c1.3-0.4,2.7-0.7,4.1-0.9
		c0.1,0,0.3,0.1,0.3,0.2c0,0.1-0.1,0.3-0.2,0.3C49.3,40.5,47.9,40.8,46.5,41.3C46.6,41.3,46.5,41.3,46.5,41.3z"/>
	<path class="st6" d="M69.5,32.5c-1.7,0-3,0.7-3,1.5s1.3,1.5,3,1.5s3-0.7,3-1.5S71.2,32.5,69.5,32.5z"/>
	<path class="st7" d="M69.5,35.8c-1.8,0-3.3-0.8-3.3-1.8s1.4-1.8,3.3-1.8s3.3,0.8,3.3,1.8S71.3,35.8,69.5,35.8z M69.5,32.8
		c-1.6,0-2.8,0.7-2.8,1.3s1.1,1.3,2.8,1.3s2.8-0.7,2.8-1.3S71.1,32.8,69.5,32.8z M78.5,39.8h-3c-0.1,0-0.3-0.1-0.3-0.3
		s0.1-0.3,0.3-0.3h3c0.1,0,0.3,0.1,0.3,0.3S78.6,39.8,78.5,39.8z M73.5,39.8h-10c-0.1,0-0.3-0.1-0.3-0.3s0.1-0.3,0.3-0.3h10
		c0.1,0,0.3,0.1,0.3,0.3S73.6,39.8,73.5,39.8z"/>
	<path class="st7" d="M75.6,30.1c-2.6-2.5-7.4-5.4-16-5c-5.1,0.2-9.6,1.4-13.1,3.3c-6.3-4.8-13-2.1-15.1-0.1c-1,1-0.8,1.7-0.6,2
		c0.4,0.5,1,0.7,1.7,1c1.5,0.5,3.8,1.4,5.5,5.5c-6.2,10.2-6.6,24.3-5.8,27.6c-2,0.8-7.9,3.6-7.9,8.5V73l0.1,0.1c0,0.1,0.5,1,1.4,1.2
		c0.1,0,0.2,0,0.4,0c0.7,0,1.3-0.4,2-1.1c0.4-0.4,1.8-0.5,3-0.6c1.6-0.1,3.5-0.3,4.6-1.1c1,0.8,2.9,1,4.6,1.1
		c1.1,0.1,2.3,0.2,2.9,0.4c0.2,0.9,1,1.7,2,1.7c1.1,0,2-0.9,2-2c0-5-6.1-7.8-8-8.5C41,54.4,45.8,47.8,53.1,45
		c-0.5,2.3-1.4,4.5-1.8,5c-0.5,0.7-0.2,1.1-0.1,1.3c0.2,0.3,0.7,0.4,1.2,0.4c0.9,0,2.1-0.4,2.7-0.6c4.1-1.5,6.8-3.9,8.2-7.4l2.5,0
		c8.6,0,13.8,0,13.8-5.5C79.6,36.2,78.4,32.8,75.6,30.1z M31.1,71.4c-1.7,0.1-3.2,0.2-3.9,1c-0.5,0.5-0.9,0.7-1.1,0.6
		c-0.2,0-0.3-0.2-0.4-0.3c0.1-3.9,5.3-6.3,7-7l2.1,4.2l0.2,0.4C34.9,71.2,32.8,71.3,31.1,71.4z M45.9,72.9c0,0.4-0.3,0.6-0.6,0.6
		s-0.6-0.3-0.6-0.6v-0.3l-0.2-0.2c-0.7-0.7-2.2-0.8-3.9-1c-1.7-0.1-3.7-0.3-3.9-1.1l0.9-1.8c0.5-0.9,1-2,1.4-2.7l0.1-0.2
		C40.6,66.4,45.9,68.9,45.9,72.9z M65.8,42.4h-0.7l-1.3,0c0.4-1.5,0.6-3.1,0.6-4.8c0-0.4-0.3-0.7-0.7-0.7S63,37.2,63,37.6
		c0,6.4-2.6,10.3-8.3,12.3c-0.7,0.2-1.4,0.4-1.9,0.5c1-2,3.8-9.1,0.3-12.6c-0.3-0.3-0.7-0.3-1,0c-0.3,0.3-0.3,0.7,0,1
		c1.2,1.1,1.4,2.9,1.2,4.8c0,0-0.1,0-0.1,0c-5.8,1.9-13.2,7.2-15.4,21.1c0,0.1-0.1,0.1-0.1,0.2L36.6,67c-0.3,0.6-0.6,1.2-0.8,1.6
		l-2.2-4.5c-0.5-1.5-0.8-16.1,5.8-26.8c1-1.5,2.3-3,3.6-4.3c0.1-0.1,0.1-0.3,0-0.4c-0.1-0.1-0.3-0.1-0.4,0c-1.1,1.1-2.2,2.4-3.2,3.7
		c-1.9-4.9-4.7-5.9-6.4-6.5c-0.3-0.1-0.7-0.2-0.9-0.3c0.4-0.5,1.6-1.4,3.6-2c2.1-0.6,6.1-1.1,10.3,2.2c0,0,0,0,0,0c0,0,0,0,0,0
		c-0.5,0.4-1,0.7-1.5,1.1c-0.1,0.1-0.1,0.2,0,0.4c0,0.1,0.1,0.1,0.2,0.1c0.1,0,0.1,0,0.2-0.1c1-0.8,2-1.5,2.9-2.1c0,0,0,0,0,0
		c3.2-1.6,7.2-2.6,11.8-2.8c8.1-0.4,12.6,2.3,15,4.6c2.9,2.8,3.6,5.9,3.6,7.2C78.2,42.2,75,42.4,65.8,42.4z"/>
	<path class="st7" d="M56.6,47.9c-0.1,0-0.2,0-0.2-0.1c-0.1-0.1,0-0.3,0.1-0.3c1-0.6,1.9-1.3,2.6-2.1c0.1-0.1,0.2-0.1,0.4,0
		c0.1,0.1,0.1,0.2,0,0.4c-0.8,0.9-1.7,1.7-2.7,2.2C56.6,47.8,56.6,47.9,56.6,47.9z"/>
	<g>
		<path class="st7" d="M60.3,44.1c0,0-0.1,0-0.1,0c-0.1-0.1-0.2-0.2-0.1-0.3c0.2-0.4,0.4-0.8,0.6-1.2c0.1-0.1,0.2-0.2,0.3-0.1
			c0.1,0.1,0.2,0.2,0.1,0.3c-0.2,0.4-0.4,0.9-0.6,1.3C60.5,44,60.4,44.1,60.3,44.1z"/>
	</g>
</g>
</svg>
