<?xml version="1.0" encoding="utf-8"?>
<!-- Generator: Adobe Illustrator 23.0.3, SVG Export Plug-In . SVG Version: 6.00 Build 0)  -->
<svg version="1.1" id="Layer_1" xmlns="http://www.w3.org/2000/svg" xmlns:xlink="http://www.w3.org/1999/xlink" x="0px" y="0px"
	 viewBox="0 0 100 100" style="enable-background:new 0 0 100 100;" xml:space="preserve">
<style type="text/css">
	.st0{fill:#CEE1F4;}
	.st1{fill:#78A0CF;}
	.st2{fill:#F1BC19;}
	.st3{fill:#FBCD59;}
	.st4{fill:#FFFFFF;}
	.st5{fill:#EC795A;}
	.st6{fill:#C06134;}
	.st7{fill:#FDFCEF;}
	.st8{fill:#472B29;}
	.st9{fill:#836F61;}
</style>
<circle class="st0" cx="50.1" cy="50" r="37"/>
<circle class="st1" cx="13.1" cy="29" r="2"/>
<circle class="st2" cx="77.1" cy="13" r="1"/>
<circle class="st2" cx="83.1" cy="15" r="4"/>
<circle class="st1" cx="87.1" cy="24" r="2"/>
<circle class="st3" cx="81.1" cy="76" r="2"/>
<circle class="st3" cx="15.1" cy="63" r="4"/>
<circle class="st1" cx="25.1" cy="87" r="2"/>
<circle class="st4" cx="18.6" cy="45.5" r="2.5"/>
<circle class="st4" cx="80.1" cy="34" r="1"/>
<circle class="st2" cx="18.1" cy="56" r="1"/>
<path class="st5" d="M75.3,53.9C77.4,67.1,63.4,73.1,50,73.1s-28.3-6.2-25.3-19.3C28,40,36.6,29.6,50,29.6S73,40,75.3,53.9z"/>
<path class="st6" d="M71,58c0,10.5-8.7,15-21,15s-21-4.6-21-15c0-5.4,5.5-7.2,9.3-10.7C42,44,44,39,50,39c6.6,0,9.1,5.5,12.8,9.4
	C66,51.7,71,53.1,71,58z"/>
<path class="st7" d="M38.5,70.5c0,0-5.3-5.5-1-12c4-6-3-8-6-2C30.1,59.3,29.5,66.5,38.5,70.5z"/>
<path class="st7" d="M43.5,53.5c0,3,3.2,2.1,4-1c1-4-4-5-7-3C42.5,49.5,44.5,50.5,43.5,53.5z"/>
<path class="st7" d="M61.8,70.5c0,0,5.3-5.5,1-12c-4-6,3-8,6-2C70.2,59.3,70.8,66.5,61.8,70.5z"/>
<path class="st7" d="M56.8,53.5c0,3-3.2,2.1-4-1c-1-4,4-5,7-3C57.8,49.5,55.8,50.5,56.8,53.5z"/>
<path class="st8" d="M40.5,53.1c0,0,2.5-0.5,3.5,0.5c1,0.9,1,2.8,1,2.8S40,59.1,40.5,53.1z"/>
<path class="st8" d="M60,53.1c0,0-2.8-0.5-3.9,0.5C55,54.5,55,56.4,55,56.4S60.5,59.1,60,53.1z"/>
<path class="st8" d="M43.8,52.3c-0.1,0-0.2-0.1-0.3-0.2c0-2.1-2.3-2.3-3-2.3c-0.1,0-0.2-0.1-0.2-0.2c0-0.1,0-0.2,0.1-0.3
	c1.2-0.8,2.7-1.2,4.1-1c0.1,0,0.2,0.1,0.2,0.3s-0.1,0.2-0.3,0.2c-1-0.1-2.1,0.1-3.1,0.5c1.4,0.2,2.7,1,2.7,2.7
	C44,52.2,43.9,52.3,43.8,52.3C43.8,52.3,43.8,52.3,43.8,52.3z"/>
<path class="st8" d="M47.6,51.9C47.6,51.9,47.6,51.9,47.6,51.9c-0.1,0-0.3-0.1-0.3-0.3c0.1-1.4-0.7-2.1-1.4-2.4
	c-0.1-0.1-0.2-0.2-0.1-0.3s0.2-0.2,0.3-0.1c1.1,0.6,1.7,1.6,1.7,2.9C47.9,51.8,47.8,51.9,47.6,51.9z"/>
<path class="st8" d="M46.4,54.8c-0.1,0-0.1,0-0.2-0.1c-0.1-0.1-0.1-0.3,0-0.4c0.4-0.4,0.7-0.9,0.9-1.4c0-0.1,0.2-0.2,0.3-0.1
	c0.1,0,0.2,0.2,0.1,0.3c-0.2,0.6-0.6,1.2-1,1.6C46.5,54.8,46.4,54.8,46.4,54.8z"/>
<path class="st8" d="M56.5,52.3C56.5,52.3,56.5,52.3,56.5,52.3c-0.1,0-0.3-0.1-0.3-0.3c0-1.7,1.3-2.5,2.7-2.7
	c-1.6-0.7-3.5-0.8-4.7,0c-0.1,0.1-0.3,0-0.3-0.1c-0.1-0.1,0-0.3,0.1-0.3c1.6-1,4.2-0.8,6,0.4c0.1,0.1,0.1,0.2,0.1,0.3
	c0,0.1-0.1,0.2-0.2,0.2c-0.7,0-3,0.2-3,2.3C56.8,52.2,56.7,52.3,56.5,52.3z"/>
<path class="st8" d="M53.6,54.5c-0.1,0-0.1,0-0.2-0.1c-0.4-0.5-0.7-1.1-0.9-1.8c-0.2-0.9-0.2-1.8,0.2-2.5c0.1-0.1,0.2-0.2,0.3-0.1
	s0.2,0.2,0.1,0.3c-0.3,0.6-0.4,1.3-0.2,2.1c0.2,0.6,0.4,1.2,0.8,1.6c0.1,0.1,0.1,0.3,0,0.4C53.7,54.5,53.7,54.5,53.6,54.5z"/>
<path class="st8" d="M50.1,30.4c12.3,0,22,9.6,24.3,23.9c0.7,4.1-0.3,7.7-2.8,10.6c-4,4.7-12.3,7.7-21.5,7.7c-9.5,0-18.2-3.1-22.1-8
	c-2.3-2.9-3.1-6.3-2.2-10.2C29.1,38.9,37.7,30.4,50.1,30.4 M50.1,29c-13.6,0-22.4,9.7-25.7,25.1C21.5,67.6,36.4,74,50.1,74
	S78,67.8,75.8,54.1C73.5,39.7,63.7,29,50.1,29L50.1,29z"/>
<path class="st7" d="M27.3,46.8c-3.4-3.3-5.4-9.4-4.3-13.6c0.4-1.5,1.4-3.5,3.9-4c1.2-0.2,2.4-0.3,3.6-0.3c6.1,0,10.4,3,10.9,5.2
	c0.2,1.2-1.4,2.2-4.1,3.6C34,39.5,29.6,42,27.3,46.8z"/>
<path class="st8" d="M30.5,29.6c6,0,9.8,3,10.2,4.6c0.1,0.8-1.8,1.8-3.7,2.9c-3.1,1.7-7.3,4-9.8,8.5c-2.8-3.2-4.4-8.5-3.5-12.2
	c0.5-2,1.6-3.1,3.3-3.5C28.2,29.7,29.3,29.6,30.5,29.6 M30.5,28.2c-1.2,0-2.4,0.1-3.7,0.4C19.3,30,21.4,43,27.6,48
	c3.6-9.3,15-9.9,14.4-14C41.5,31.5,36.9,28.2,30.5,28.2L30.5,28.2z"/>
<path class="st7" d="M72.9,46.8c-2.2-4.9-6.5-7.3-9.6-9c-2.6-1.5-4.1-2.4-4-3.7c0.4-2.1,4.6-5.2,10.5-5.2c1.1,0,2.3,0.1,3.5,0.3
	c2.4,0.5,3.4,2.4,3.7,3.9C78.1,37.4,76.2,43.5,72.9,46.8z"/>
<path class="st8" d="M69.8,28.2v1.4c1.1,0,2.2,0.1,3.3,0.3c1.6,0.3,2.7,1.5,3.2,3.4c0.9,3.6-0.6,9-3.3,12.3
	c-2.4-4.4-6.4-6.7-9.4-8.4c-1.9-1.1-3.7-2.1-3.6-2.9c0.4-1.6,4-4.6,9.8-4.6L69.8,28.2 M69.8,28.2c-6.3,0-10.7,3.3-11.2,5.8
	c-0.6,4.1,10.5,4.7,14,14c6-5,8-18,0.8-19.4C72.1,28.3,70.9,28.2,69.8,28.2L69.8,28.2z"/>
<path class="st7" d="M60,65.4c0,5.3-6.5,7.6-10,7.6s-10-2.3-10-7.6c0-2.6,2.2-4,4-5.8c1.8-1.7,2.5-3.8,6-3.8s4.4,2.2,6.3,4.1
	C57.9,61.5,60,62.8,60,65.4z"/>
<path class="st8" d="M50,73.2c-3.6,0-10.3-2.3-10.3-7.9c0-2.3,1.6-3.7,3.1-5.1c0.3-0.3,0.6-0.6,0.9-0.8c0.4-0.4,0.8-0.8,1.2-1.3
	c1.2-1.3,2.2-2.6,5-2.6c2.9,0,4.1,1.4,5.3,2.9c0.3,0.4,0.7,0.8,1.1,1.2c0.3,0.3,0.7,0.7,1,1c1.4,1.3,2.8,2.6,2.8,4.7
	C60.3,70.9,53.6,73.2,50,73.2z M50,56c-2.5,0-3.5,1.1-4.6,2.4c-0.4,0.4-0.7,0.9-1.2,1.3c-0.3,0.3-0.6,0.6-0.9,0.9
	c-1.5,1.4-3,2.7-3,4.7c0,5.1,6.5,7.4,9.8,7.4s9.8-2.2,9.8-7.4c0-1.9-1.3-3.1-2.6-4.4c-0.3-0.3-0.7-0.6-1-1c-0.4-0.4-0.8-0.8-1.1-1.2
	C53.7,57.3,52.6,56,50,56z"/>
<path class="st8" d="M53,65.6c0,1.3-1,2.4-3,2.4s-3-1.1-3-2.4s1-3.6,3-3.6S53,64.3,53,65.6z"/>
<path class="st8" d="M50,70.4c-1.4,0-2.8-0.3-4.2-0.9c-0.3-0.1-0.4-0.4-0.3-0.7c0.1-0.3,0.4-0.4,0.7-0.3c2.5,1.1,5.1,1.1,7.6,0
	c0.3-0.1,0.5,0,0.7,0.3c0.1,0.3,0,0.5-0.3,0.7C52.8,70.1,51.4,70.4,50,70.4z"/>
<path class="st8" d="M38.5,70.8c0,0-0.1,0-0.1,0c-0.8-0.3-1.5-0.7-2.2-1.2c-6.8-4.2-5.9-10-5.4-11.7c0-0.1,0.2-0.2,0.3-0.2
	c0.1,0,0.2,0.2,0.2,0.3c-0.4,1.6-1.3,7.2,5.2,11.2c0.7,0.4,1.4,0.8,2.1,1.1c0.1,0.1,0.2,0.2,0.1,0.3C38.7,70.7,38.6,70.8,38.5,70.8z
	"/>
<g>
	<path class="st8" d="M37.5,58.8c0,0-0.1,0-0.1,0c-0.1-0.1-0.1-0.2-0.1-0.3c1.7-2.5,1.3-4.2,0.3-4.8c-1.2-0.8-3.5-0.4-5.1,1.8
		c-0.1,0.1-0.2,0.1-0.3,0c-0.1-0.1-0.1-0.2,0-0.3c1.9-2.4,4.4-2.9,5.8-1.9c1.1,0.8,1.7,2.7-0.2,5.5C37.7,58.7,37.6,58.8,37.5,58.8z"
		/>
</g>
<g>
	<path class="st8" d="M36.8,68.2c-0.1,0-0.2-0.1-0.2-0.1c-0.9-1.8-1.6-4.6-0.3-7.7c0.1-0.1,0.2-0.2,0.3-0.1c0.1,0.1,0.2,0.2,0.1,0.3
		c-1.2,3-0.5,5.6,0.3,7.3c0.1,0.1,0,0.3-0.1,0.3C36.9,68.2,36.8,68.2,36.8,68.2z"/>
</g>
<g>
	<path class="st8" d="M63.7,67.8C63.6,67.8,63.6,67.8,63.7,67.8c-0.2-0.1-0.3-0.2-0.2-0.4c0.9-2.1,1.5-5.3-0.8-8.8
		c-0.1-0.1,0-0.3,0.1-0.3c0.1-0.1,0.3,0,0.3,0.1c2.5,3.7,1.8,7.1,0.9,9.3C63.9,67.8,63.8,67.8,63.7,67.8z"/>
</g>
<g>
	<path class="st8" d="M68.6,64.8c0,0-0.1,0-0.1,0c-0.1-0.1-0.2-0.2-0.1-0.3c1-2,1-3.8,0.9-5c0-0.1,0.1-0.3,0.2-0.3
		c0.1,0,0.3,0.1,0.3,0.2c0.1,1.3,0,3.2-1,5.3C68.8,64.7,68.7,64.8,68.6,64.8z"/>
</g>
<g>
	<path class="st8" d="M69.3,57.9c-0.1,0-0.2-0.1-0.2-0.2c-0.1-0.4-0.3-0.8-0.4-1.1c-1.4-2.9-3.9-4-5.5-3.3c-1.1,0.5-1.5,1.7-1,3.2
		c0,0.1,0,0.3-0.2,0.3c-0.1,0-0.3,0-0.3-0.2c-0.7-2.1,0.2-3.4,1.3-3.8c1.8-0.7,4.6,0.4,6.2,3.5c0.2,0.4,0.3,0.8,0.5,1.2
		C69.5,57.8,69.5,57.9,69.3,57.9C69.3,57.9,69.3,57.9,69.3,57.9z"/>
</g>
<g>
	<path class="st8" d="M28,36.5c-0.2,0-0.4-0.1-0.4-0.3c-0.8-1.5-0.4-2.4-0.2-2.8c0.3-0.6,0.9-0.9,1.6-0.9c0.3,0,0.5,0.2,0.5,0.5
		s-0.2,0.5-0.5,0.5c-0.3,0-0.6,0.2-0.8,0.4c-0.3,0.4-0.2,1.1,0.2,1.9c0.1,0.2,0,0.5-0.2,0.7C28.2,36.5,28.1,36.5,28,36.5z"/>
</g>
<g>
	<path class="st8" d="M35,36.5c-0.2,0-0.3-0.1-0.4-0.2c0,0-1.2-1.8-3.6-2.5c-0.3-0.1-0.4-0.4-0.3-0.6s0.4-0.4,0.6-0.3
		c2.7,0.8,4.1,2.8,4.2,2.9c0.2,0.2,0.1,0.5-0.1,0.7C35.2,36.5,35.1,36.5,35,36.5z"/>
</g>
<g>
	<path class="st8" d="M72.6,36.5c-0.1,0-0.2,0-0.2-0.1c-0.2-0.1-0.3-0.4-0.2-0.7c0.4-0.8,0.5-1.5,0.2-1.9c-0.2-0.3-0.4-0.4-0.8-0.4
		c-1.1,0-2.1,0.2-3.1,0.7c-0.2,0.1-0.5,0-0.7-0.2c-0.1-0.2,0-0.5,0.2-0.7c1.1-0.5,2.3-0.8,3.5-0.8c0.7,0,1.3,0.3,1.6,0.9
		c0.3,0.4,0.6,1.3-0.2,2.8C72.9,36.4,72.8,36.5,72.6,36.5z"/>
</g>
<g>
	<path class="st8" d="M65.6,36.5c-0.1,0-0.2,0-0.3-0.1c-0.2-0.2-0.3-0.5-0.1-0.7c0,0,0.4-0.6,1.2-1.3c0.2-0.2,0.5-0.2,0.7,0.1
		s0.2,0.5-0.1,0.7c-0.6,0.6-1,1.1-1,1.1C65.9,36.4,65.7,36.5,65.6,36.5z"/>
</g>
<g>
	<circle class="st9" cx="43" cy="55" r="1"/>
</g>
<g>
	<circle class="st9" cx="57" cy="55" r="1"/>
</g>
<g>
	<path class="st8" d="M57.3,64.2c-0.1,0-0.1,0-0.1-0.1c0-0.1,0-0.1,0.1-0.2c0.1,0,5.7-1.5,10.5-0.2c0.1,0,0.1,0.1,0.1,0.2
		c0,0.1-0.1,0.1-0.2,0.1C62.9,62.7,57.3,64.2,57.3,64.2C57.3,64.2,57.3,64.2,57.3,64.2z"/>
	<path class="st8" d="M66.7,69.4C66.7,69.4,66.6,69.4,66.7,69.4c-4.2-2.6-9.3-2.6-9.4-2.6c-0.1,0-0.1-0.1-0.1-0.1
		c0-0.1,0.1-0.1,0.1-0.1c0,0,5.2,0,9.4,2.6c0.1,0,0.1,0.1,0,0.2C66.8,69.4,66.7,69.4,66.7,69.4z"/>
	<path class="st8" d="M67.5,73.8C67.5,73.8,67.5,73.8,67.5,73.8c-3.1-3.9-11.4-6.2-11.5-6.3c-0.1,0-0.1-0.1-0.1-0.2
		c0-0.1,0.1-0.1,0.2-0.1c0.1,0,8.5,2.3,11.5,6.3C67.7,73.7,67.7,73.8,67.5,73.8C67.6,73.8,67.6,73.8,67.5,73.8z"/>
	<path class="st8" d="M68.5,66.8C68.4,66.8,68.4,66.8,68.5,66.8c-4.6-1.7-12.6-1.4-12.7-1.4c0,0,0,0,0,0c-0.1,0-0.1-0.1-0.1-0.1
		c0-0.1,0.1-0.1,0.1-0.1c0.1,0,8.1-0.3,12.7,1.4c0.1,0,0.1,0.1,0.1,0.2C68.6,66.8,68.5,66.8,68.5,66.8z"/>
</g>
<g>
	<path class="st8" d="M43,64.2C43,64.2,43,64.2,43,64.2c-0.1,0-5.7-1.5-10.4-0.2c-0.1,0-0.1,0-0.2-0.1c0-0.1,0-0.1,0.1-0.2
		c4.8-1.3,10.4,0.2,10.5,0.2c0.1,0,0.1,0.1,0.1,0.2C43.1,64.2,43,64.2,43,64.2z"/>
	<path class="st8" d="M33.5,69.4c0,0-0.1,0-0.1-0.1c0-0.1,0-0.1,0-0.2c4.2-2.6,9.4-2.6,9.4-2.6c0.1,0,0.1,0.1,0.1,0.1
		s-0.1,0.1-0.1,0.1C42.9,66.9,37.8,66.9,33.5,69.4C33.6,69.4,33.6,69.4,33.5,69.4z"/>
	<path class="st8" d="M32.7,73.8C32.7,73.8,32.6,73.8,32.7,73.8c-0.1-0.1-0.1-0.1-0.1-0.2c3-4,11.4-6.3,11.5-6.3
		c0.1,0,0.1,0,0.2,0.1c0,0.1,0,0.1-0.1,0.2C44.1,67.6,35.8,69.9,32.7,73.8C32.8,73.8,32.7,73.8,32.7,73.8z"/>
	<path class="st8" d="M31.8,66.8c-0.1,0-0.1,0-0.1-0.1c0-0.1,0-0.1,0.1-0.2c4.7-1.7,12.7-1.4,12.7-1.4c0.1,0,0.1,0.1,0.1,0.1
		c0,0.1-0.1,0.1-0.1,0.1c0,0,0,0,0,0C44.4,65.4,36.4,65.1,31.8,66.8C31.8,66.8,31.8,66.8,31.8,66.8z"/>
</g>
</svg>
