<?xml version="1.0" encoding="utf-8"?>
<!-- Generator: Adobe Illustrator 23.0.3, SVG Export Plug-In . SVG Version: 6.00 Build 0)  -->
<svg version="1.1" id="Layer_1" xmlns="http://www.w3.org/2000/svg" xmlns:xlink="http://www.w3.org/1999/xlink" x="0px" y="0px"
	 viewBox="0 0 100 100" style="enable-background:new 0 0 100 100;" xml:space="preserve">
<style type="text/css">
	.st0{fill:#CEE1F4;}
	.st1{fill:#78A0CF;}
	.st2{fill:#F1BC19;}
	.st3{fill:#FBCD59;}
	.st4{fill:#FFFFFF;}
	.st5{fill:#EAB436;}
	.st6{fill:#472B29;}
	.st7{fill:#FDFCEF;}
	.st8{fill:#CBC9BC;}
	.st9{fill:#EF9922;}
</style>
<circle class="st0" cx="50" cy="50" r="37"/>
<circle class="st1" cx="13" cy="29" r="2"/>
<circle class="st2" cx="77" cy="13" r="1"/>
<circle class="st2" cx="83" cy="15" r="4"/>
<circle class="st1" cx="87" cy="24" r="2"/>
<circle class="st3" cx="81" cy="76" r="2"/>
<circle class="st3" cx="15" cy="63" r="4"/>
<circle class="st1" cx="25" cy="87" r="2"/>
<circle class="st4" cx="18.5" cy="45.5" r="2.5"/>
<circle class="st4" cx="80" cy="41" r="1"/>
<circle class="st2" cx="22" cy="66" r="1"/>
<path class="st5" d="M56,70c-0.1,0-0.2,0-0.3-0.1c-2.7-0.9-7.4,0-7.5,0c-0.3,0.1-0.6,0-0.8-0.2c-0.2-0.2-0.4-0.4-0.4-0.7l-1-8
	c0-0.1,0-0.2,0-0.4l1-4c0.1-0.5,0.7-0.9,1.2-0.7c0.5,0.1,0.9,0.7,0.7,1.2l-1,3.8l0.8,6.8c1.7-0.2,5.1-0.6,7.5,0.2
	c0.5,0.2,0.8,0.7,0.6,1.3C56.8,69.7,56.4,70,56,70z"/>
<path class="st6" d="M56,70.5c-0.2,0-0.3,0-0.5-0.1c-2.5-0.8-6.7,0-7.2,0c-0.4,0.1-0.8,0-1.2-0.3c-0.3-0.2-0.6-0.6-0.6-1
	c0-0.3,0.2-0.5,0.4-0.6c0.3,0,0.5,0.2,0.6,0.4c0,0.1,0.1,0.3,0.2,0.3c0.1,0.1,0.3,0.1,0.4,0.1c0.8-0.2,5.1-0.9,7.7,0
	c0.3,0.1,0.5-0.1,0.6-0.3c0-0.1,0-0.3,0-0.4c-0.1-0.1-0.2-0.2-0.3-0.2c-2.2-0.8-5.5-0.4-7.2-0.2c-0.1,0-0.3,0-0.4-0.1
	c-0.1-0.1-0.2-0.2-0.2-0.3l-0.8-6.8c0-0.1,0-0.1,0-0.2l1-3.8c0-0.1,0-0.3-0.1-0.4s-0.2-0.2-0.3-0.2c-0.1,0-0.3,0-0.4,0.1
	c-0.1,0.1-0.2,0.2-0.2,0.3l-1,4c0,0.1,0,0.1,0,0.2l0.7,5.6c0,0.3-0.2,0.5-0.4,0.6c-0.3,0-0.5-0.2-0.6-0.4l-0.7-5.6
	c0-0.2,0-0.4,0-0.6l1-4c0.1-0.4,0.3-0.7,0.7-0.9c0.3-0.2,0.7-0.3,1.1-0.2c0.4,0.1,0.7,0.3,0.9,0.7s0.3,0.7,0.2,1.1l-0.9,3.7l0.8,6.2
	c1.9-0.2,4.9-0.4,7.2,0.3c0.4,0.1,0.7,0.4,0.9,0.8c0.2,0.4,0.2,0.8,0.1,1.1C57.2,70.1,56.6,70.5,56,70.5z"/>
<path class="st5" d="M54,58.2l-0.9,3.4l0,0.9l0.7,5.8l0.1,0.6c0,0,0.3-0.1,1-0.1c0.7,0,1.4-0.1,2.1,0c1.4,0,2.8,0.2,4.2,0.7
	c0.3,0.1,0.4,0.4,0.3,0.7c-0.1,0.3-0.4,0.4-0.7,0.3l0,0c-1.2-0.3-2.5-0.3-3.8-0.2c-0.6,0.1-1.3,0.1-1.9,0.2
	c-0.6,0.1-1.3,0.2-1.9,0.4h0l0,0c-0.5,0.1-1.1-0.3-1.2-0.8l0-0.1l-1-8c0-0.1,0-0.3,0-0.4l1-4c0.1-0.5,0.7-0.9,1.2-0.7
	C53.8,57.2,54.1,57.7,54,58.2z"/>
<path class="st6" d="M53.5,66.8c-0.2,0-0.5-0.2-0.5-0.4l-0.5-3.7l0-1c0,0,0-0.1,0-0.1l0.9-3.4c0-0.1,0-0.3-0.1-0.4
	c-0.1-0.1-0.2-0.2-0.3-0.2c-0.3-0.1-0.5,0.1-0.6,0.4l-1,4c0,0.1,0,0.1,0,0.2l0.2,1.4c0,0.3-0.2,0.5-0.4,0.6c-0.3,0-0.5-0.2-0.6-0.4
	l-0.2-1.4c0-0.2,0-0.4,0-0.6l1-4c0.2-0.8,1-1.3,1.8-1.1c0.4,0.1,0.7,0.3,0.9,0.7s0.3,0.7,0.2,1.1l-0.9,3.4l0,0.8l0.4,3.7
	C54.1,66.5,53.9,66.8,53.5,66.8C53.6,66.8,53.5,66.8,53.5,66.8z"/>
<path class="st6" d="M53,71.5c-0.7,0-1.4-0.5-1.5-1.2l-0.6-4.9c0-0.3,0.2-0.5,0.4-0.6c0.3,0,0.5,0.2,0.6,0.4l0.6,4.8
	c0.1,0.3,0.3,0.5,0.6,0.4c0.5-0.1,1.2-0.3,1.9-0.4c0.8-0.1,1.4-0.2,2-0.3c1.6-0.1,2.9-0.1,4,0.2l0-0.1c-1.4-0.5-2.8-0.6-4-0.6
	c-0.6,0-1.3,0-2,0c-0.6,0-0.9,0.1-0.9,0.1c-0.1,0-0.3,0-0.4-0.1c-0.1-0.1-0.2-0.2-0.2-0.3l-0.1-0.6c0-0.3,0.1-0.5,0.4-0.6
	c0.3,0,0.5,0.1,0.6,0.4l0,0.1c0.2,0,0.4,0,0.6,0c0.8,0,1.5-0.1,2.1,0c1.3,0,2.8,0.2,4.3,0.7c0.5,0.2,0.8,0.8,0.6,1.4
	c-0.2,0.5-0.7,0.8-1.2,0.7c-1-0.2-2.2-0.3-3.7-0.2c-0.5,0-1.2,0.1-1.9,0.2c-0.7,0.1-1.3,0.2-1.9,0.4C53.2,71.5,53.1,71.5,53,71.5z"
	/>
<path class="st6" d="M35.5,64h-9c-0.3,0-0.5-0.2-0.5-0.5s0.2-0.5,0.5-0.5h9c0.3,0,0.5,0.2,0.5,0.5S35.8,64,35.5,64z"/>
<path class="st6" d="M42.5,64h-4c-0.3,0-0.5-0.2-0.5-0.5s0.2-0.5,0.5-0.5h4c0.3,0,0.5,0.2,0.5,0.5S42.8,64,42.5,64z"/>
<path class="st6" d="M74.5,64h-18c-0.3,0-0.5-0.2-0.5-0.5s0.2-0.5,0.5-0.5h18c0.3,0,0.5,0.2,0.5,0.5S74.8,64,74.5,64z"/>
<path class="st7" d="M56.8,40c-3.7,0.1-11.2,1.7-19.2,6.8c-6.8,1.7-16.3,3.4-16.9,4.2l-2.1,2.1c-0.3,0.3-0.1,0.8,0.3,0.8
	c3.9-0.2,16.7-0.4,20.1,2.1c4,3,17.8,9.3,29.4-3.5c2.9-3.1,3.4-10.9,0.8-13.8c1-1,1.7-2,4-2.4c1-1,0.9-3.5,0.9-3.5
	c-1.7,0.1-2.7-3.3-7-3.8c-5-0.5-8,3-8,5v3.8C59,39,58,39.9,56.8,40z"/>
<circle class="st6" cx="68" cy="33" r="1"/>
<g>
	<path class="st8" d="M55,56c0,0-10.9-1.7-17.8-2.4c-10.2-1.1-5.3-3.2-5.3-3.2s7.3-6.3,21.8-9.4C64.6,38.6,66,44,66,44s-4,4-6,7
		S57,56,55,56z"/>
</g>
<g>
	<path class="st6" d="M43.4,54.5C43.4,54.5,43.3,54.5,43.4,54.5c-3.5-0.5-6.5-0.7-8.7-0.7c-0.3,0-0.5-0.2-0.5-0.5s0.2-0.5,0.5-0.5
		c2.3,0,5.2,0.2,8.8,0.7c0.3,0,0.5,0.3,0.4,0.6C43.9,54.3,43.6,54.5,43.4,54.5z"/>
</g>
<g>
	<path class="st6" d="M54.5,56.2c-0.7,0-1.6-0.1-2.6-0.4c0,0,0,0,0,0c0,0-1.1-0.2-5.8-0.9c-0.3,0-0.5-0.3-0.4-0.6
		c0-0.3,0.3-0.5,0.6-0.4c4.8,0.7,5.8,0.9,5.8,0.9c4.1,1.1,5.2-0.5,6.7-3c0.2-0.4,0.5-0.8,0.7-1.2c0.2-0.2,0.5-0.3,0.7-0.1
		c0.2,0.2,0.3,0.5,0.1,0.7c-0.3,0.4-0.5,0.8-0.7,1.1C58.4,54.4,57.3,56.2,54.5,56.2z"/>
</g>
<g>
	<path class="st6" d="M61.7,49.2c-0.1,0-0.2,0-0.3-0.1c-0.2-0.2-0.2-0.5-0.1-0.7c1.2-1.5,2.6-2.9,3.5-3.9c0.4-0.4,0.4-1.1,0.1-1.5
		c-0.5-0.6-1.4-1.4-3.1-1.8c-0.3-0.1-0.4-0.3-0.4-0.6c0.1-0.3,0.4-0.4,0.6-0.4c1.9,0.5,3,1.5,3.6,2.1c0.7,0.8,0.6,2-0.1,2.8
		c-0.9,0.9-2.2,2.4-3.4,3.8C62,49.2,61.9,49.2,61.7,49.2z"/>
</g>
<g>
	<path class="st6" d="M17.7,54.9c0,0,18.2-2.5,25.2-0.5c-6-2-7-4-7-4L31,52c0,0,5.3-4,3.1-4s-3.3,0.6-3.3,0.6l-11.2,2.3
		C19.7,50.9,14.7,54.9,17.7,54.9z"/>
</g>
<g>
	<path class="st6" d="M66,30.4c0.3,0,0.5,0,0.8,0c2.1,0.2,3.2,1.3,4.2,2.2c0.5,0.5,1,0.9,1.5,1.2c-0.1,0.6-0.2,1-0.3,1.3
		c-1.8,0.5-2.8,1.3-3.7,2.2c-0.7,0.8-0.8,1.9-0.2,2.8c1.8,2.7,1.3,9-1,11.5c-4.4,4.8-9.5,7.2-15.2,7.2c-5.6,0-10.4-2.5-12.3-3.9
		c-1.6-1.2-5.1-1.8-10.5-1.8c-4.3,0-8.7,0.4-11,0.6c0.4-0.7,1-1.3,1.7-1.8l0.1-0.1c0.9-0.4,5-1.2,8.2-1.9c3.1-0.6,6.5-1.4,9.3-2.1
		c0.2-0.1,0.4-0.1,0.6-0.3c8-5.1,15.2-6,17.9-6.1c2.3-0.1,4.1-2,4.1-4.4v-3C60.4,32.9,62.4,30.4,66,30.4 M66,29c-4.4,0-7,3.2-7,5v3
		c0,1.6-1.2,2.9-2.8,3c-3.9,0.2-11,1.5-18.6,6.3c-0.1,0-0.1,0.1-0.2,0.1c-6.8,1.7-17.5,3.5-18.1,4.3c-1.4,1-2.2,2.2-2.7,3.4
		c-0.2,0.5,0.2,1.1,0.8,1.1c0,0,0.1,0,0.1,0c2.2-0.2,7.2-0.7,11.9-0.7c4.2,0,8.1,0.4,9.7,1.6c2.2,1.6,7.2,4.2,13.2,4.2
		c5.1,0,10.9-1.8,16.2-7.7c2.7-3,3.3-10.1,1.1-13.2c-0.2-0.3-0.2-0.7,0.1-1c0.8-0.8,1.5-1.5,3.2-1.9c0.2,0,0.4-0.1,0.5-0.3
		c0.5-0.7,0.7-1.9,0.7-2.7c0-0.3-0.2-0.6-0.5-0.7C72,32.1,70.8,29.4,67,29C66.7,29,66.4,29,66,29L66,29z"/>
</g>
<g>
	<path class="st9" d="M73.4,33.3c0,0-1.9,1.3-3.3,1.6c1.8,0.4,2.6,1.1,2.6,1.1s3-0.6,4.1,0.3c1,0,2.8,0,2.8,0S79.3,33,73.4,33.3z"/>
	<path class="st6" d="M79.6,36.8h-2.8c-0.1,0-0.2,0-0.3-0.1c-0.7-0.6-2.6-0.4-3.7-0.2c-0.2,0-0.3,0-0.4-0.1c0,0-0.7-0.6-2.4-1
		c-0.2-0.1-0.4-0.3-0.4-0.5s0.2-0.4,0.4-0.5c1.3-0.3,3.2-1.5,3.2-1.5c0.1,0,0.2-0.1,0.3-0.1c6.3-0.2,6.7,3.3,6.7,3.5
		c0,0.1,0,0.3-0.1,0.4S79.7,36.8,79.6,36.8z M76.9,35.8h2c-0.4-0.8-1.6-2.1-5.3-2c-0.3,0.2-1.1,0.7-1.9,1c0.6,0.2,0.9,0.5,1.1,0.6
		C73.5,35.3,75.8,35,76.9,35.8z"/>
</g>
<g>
	<path class="st8" d="M57.4,47.1c3.4-1,4.1-5.4-0.7-6.3"/>
	<path class="st6" d="M57.4,47.4c-0.1,0-0.2-0.1-0.2-0.2c0-0.1,0-0.3,0.2-0.3c1.6-0.5,2.6-1.7,2.5-3c-0.1-1.3-1.3-2.4-3.2-2.7
		c-0.1,0-0.2-0.2-0.2-0.3s0.2-0.2,0.3-0.2c2.2,0.4,3.5,1.6,3.6,3.2C60.4,45.4,59.2,46.9,57.4,47.4C57.4,47.4,57.4,47.4,57.4,47.4z"
		/>
</g>
<g>
	<path class="st8" d="M50.9,48.1c1.5-0.1,3.1-0.2,4.5-0.5"/>
	<path class="st6" d="M50.9,48.3c-0.1,0-0.2-0.1-0.3-0.2c0-0.1,0.1-0.3,0.2-0.3c1.6-0.1,3.1-0.2,4.4-0.4c0.1,0,0.3,0.1,0.3,0.2
		c0,0.1-0.1,0.3-0.2,0.3C54.1,48.1,52.6,48.3,50.9,48.3C50.9,48.3,50.9,48.3,50.9,48.3z"/>
</g>
<g>
	<path class="st8" d="M43.6,47.6c1.3,0.3,3.1,0.4,5.1,0.4"/>
	<path class="st6" d="M48.6,48.3C48.6,48.3,48.6,48.3,48.6,48.3c-2,0-3.8-0.2-5.1-0.4c-0.1,0-0.2-0.2-0.2-0.3c0-0.1,0.2-0.2,0.3-0.2
		c1.3,0.3,3.1,0.4,5,0.4c0.1,0,0.2,0.1,0.2,0.3S48.8,48.3,48.6,48.3z"/>
</g>
</svg>
