<?xml version="1.0" encoding="utf-8"?>
<!-- Generator: Adobe Illustrator 23.0.3, SVG Export Plug-In . SVG Version: 6.00 Build 0)  -->
<svg version="1.1" id="Layer_1" xmlns="http://www.w3.org/2000/svg" xmlns:xlink="http://www.w3.org/1999/xlink" x="0px" y="0px"
	 viewBox="0 0 100 100" style="enable-background:new 0 0 100 100;" xml:space="preserve">
<style type="text/css">
	.st0{fill:#F1BC19;}
	.st1{fill:#F9DBD2;}
	.st2{fill:#EE3E54;}
	.st3{fill:#FBCD59;}
	.st4{fill:#FFFFFF;}
	.st5{fill:#836F61;}
	.st6{fill:#472B29;}
	.st7{fill:#CBC9BC;}
	.st8{fill:#9F8066;}
</style>
<circle class="st0" cx="78" cy="14" r="1"/>
<circle class="st1" cx="50" cy="50" r="38"/>
<circle class="st0" cx="84" cy="16" r="4"/>
<circle class="st2" cx="14" cy="26" r="2"/>
<circle class="st3" cx="78" cy="77" r="2"/>
<circle class="st3" cx="17" cy="78" r="4"/>
<circle class="st2" cx="24" cy="83" r="2"/>
<circle class="st4" cx="64.5" cy="79.5" r="2.5"/>
<circle class="st4" cx="16" cy="48" r="1"/>
<circle class="st0" cx="86" cy="31" r="1"/>
<circle class="st4" cx="80" cy="66" r="2"/>
<g>
	<polygon class="st5" points="54,28 65,30 54,32 	"/>
	<path class="st6" d="M54,32.5c-0.1,0-0.2,0-0.3-0.1c-0.1-0.1-0.2-0.2-0.2-0.4v-4c0-0.1,0.1-0.3,0.2-0.4c0.1-0.1,0.3-0.1,0.4-0.1
		l11,2c0.2,0,0.4,0.3,0.4,0.5s-0.2,0.4-0.4,0.5L54,32.5C54.1,32.5,54,32.5,54,32.5z M54.5,28.6v2.8l7.7-1.4L54.5,28.6z"/>
	<path class="st7" d="M53.2,35.4c1.7-1.3,2.8-3.2,2.8-5.4c0-3.9-3.4-7-7.5-7c-1.5,0-2.9,0.4-4.1,1.1c-1.5,0.6-4.4,1.2-9,0.5
		c0.6,3.3,3.4,5,5.6,5.8c0.2,2.5,1.7,4.6,3.9,5.7c-0.7,0.8-1.4,1.9-1.8,3.3c-2.1,7-2.1,27-2.1,27S57,58,57,46
		C57,41.1,55.1,37.8,53.2,35.4z"/>
	<path class="st6" d="M60.5,52h-7c-0.3,0-0.5-0.2-0.5-0.5s0.2-0.5,0.5-0.5h7c0.3,0,0.5,0.2,0.5,0.5S60.8,52,60.5,52z"/>
	<path class="st6" d="M60.5,55c-0.3,0-0.5-0.2-0.5-0.5v-7c0-0.3,0.2-0.5,0.5-0.5s0.5,0.2,0.5,0.5v7C61,54.8,60.8,55,60.5,55z"/>
	<path class="st6" d="M60.5,45c-0.3,0-0.5-0.2-0.5-0.5v-7c0-0.3,0.2-0.5,0.5-0.5s0.5,0.2,0.5,0.5v7C61,44.8,60.8,45,60.5,45z"/>
	<path class="st6" d="M60.5,75c-0.3,0-0.5-0.2-0.5-0.5v-17c0-0.3,0.2-0.5,0.5-0.5s0.5,0.2,0.5,0.5v17C61,74.8,60.8,75,60.5,75z"/>
	<path class="st6" d="M60.5,52c-0.1,0-0.2,0-0.2-0.1c-0.2-0.1-0.3-0.4-0.2-0.7l2-4c0.1-0.2,0.4-0.3,0.7-0.2s0.3,0.4,0.2,0.7l-2,4
		C60.9,51.9,60.7,52,60.5,52z"/>
	<path class="st2" d="M52.5,25.5c0,0-3,0-4,1s-2,4-7,3s-5-4-5-4h7C43.5,25.5,48.5,21.5,52.5,25.5z"/>
	<circle class="st5" cx="51.5" cy="29.5" r="1"/>
	<path class="st6" d="M51.5,30.8c-0.7,0-1.3-0.6-1.3-1.3s0.6-1.3,1.3-1.3s1.3,0.6,1.3,1.3S52.2,30.8,51.5,30.8z M51.5,28.8
		c-0.4,0-0.8,0.3-0.8,0.8s0.3,0.8,0.8,0.8s0.8-0.3,0.8-0.8S51.9,28.8,51.5,28.8z"/>
	<path class="st6" d="M48.5,24.4c3.4,0,6.1,2.5,6.1,5.6c0,1.7-0.8,3.2-2.2,4.3c-0.3,0.2-0.5,0.6-0.5,0.9c0,0.4,0.1,0.8,0.3,1
		c1.6,2,3.5,4.9,3.5,9.7c0,8.5-9,15.3-13.2,18c0.1-5.5,0.4-18.8,2-24.1c0.3-1.1,0.8-2.1,1.5-2.8c0.3-0.3,0.4-0.8,0.3-1.2
		s-0.4-0.8-0.7-1c-1.9-0.9-3-2.6-3.2-4.6c0-0.5-0.4-1-0.9-1.2c-1.4-0.5-3-1.4-4-2.9c0.6,0,1.1,0.1,1.7,0.1c2.7,0,4.6-0.5,5.7-0.9
		c0.1,0,0.2-0.1,0.2-0.1C46.2,24.7,47.3,24.4,48.5,24.4 M48.5,23c-1.5,0-2.9,0.4-4.1,1.1c-1,0.4-2.7,0.8-5.2,0.8
		c-1.1,0-2.4-0.1-3.9-0.3c0.6,3.3,3.4,5,5.6,5.8c0.2,2.5,1.7,4.6,3.9,5.7c-0.7,0.8-1.4,1.9-1.8,3.3c-2.1,7-2.1,27-2.1,27
		S57,58,57,46c0-4.9-1.9-8.2-3.8-10.6c1.7-1.3,2.8-3.2,2.8-5.4C56,26.1,52.6,23,48.5,23L48.5,23z"/>
	<path class="st8" d="M41.3,60.5l5.6-4.7l2,10.4c1.1,5.4,0.1,6.3-2.1,8.6L46.6,75v0.3c0,3.5-1.3,4.6-2.1,4.9L41.3,60.5z"/>
	<path class="st6" d="M46.4,57.1l1.8,9.2c1,5,0.3,5.8-1.9,8l-0.4,0.4v0.6c0,1.9-0.4,3.1-0.9,3.7l-3-18.1L46.4,57.1 M47.3,54.5
		l-6.8,5.8L43.9,81c0,0,3.4,0,3.4-5.8c2.3-2.3,3.4-3.5,2.3-9.2C48.4,60.3,47.3,54.5,47.3,54.5L47.3,54.5z"/>
	<path class="st8" d="M37,73.5c0,0,11.6-14,14.5-22s1.9-16-4.8-16s-9.6,7-9.6,14S37,73.5,37,73.5z"/>
	<path class="st5" d="M37.5,58.5c0,0,1.3-0.1,3.3-0.9c0.3-0.1,0.7-0.3,1.1-0.4c0.3-0.1,0.6-0.3,0.9-0.4c3-1.5,6.7-4.3,9.7-9.2
		c-1,4-3.5,12.5-15,17C37.5,62.5,37.5,58.5,37.5,58.5z"/>
	<path class="st6" d="M46.6,36.9c1.7,0,2.9,0.6,3.7,1.8c1.7,2.4,1.6,7.3-0.2,12.4c-2,5.4-8.2,13.9-11.7,18.5v-20
		C38.4,43.7,40.6,36.9,46.6,36.9 M46.6,35.5c-6.7,0-9.6,7-9.6,14s0,24,0,24s11.6-14,14.5-22C54.4,43.5,53.4,35.5,46.6,35.5
		L46.6,35.5z"/>
	<path class="st6" d="M43.2,56.8c-0.1,0-0.2-0.1-0.2-0.1c-0.1-0.1,0-0.3,0.1-0.3c1.5-0.7,2.9-1.6,4.2-2.6c0.1-0.1,0.3-0.1,0.4,0
		c0.1,0.1,0.1,0.3,0,0.4c-1.3,1-2.7,1.9-4.3,2.6C43.3,56.8,43.3,56.8,43.2,56.8z"/>
	<path class="st6" d="M37.5,58.8c-0.1,0-0.2-0.1-0.2-0.2c0-0.1,0.1-0.3,0.2-0.3c0,0,1.7-0.3,3.9-1.2c0.1-0.1,0.3,0,0.3,0.1
		c0.1,0.1,0,0.3-0.1,0.3C39.2,58.5,37.6,58.7,37.5,58.8C37.5,58.7,37.5,58.8,37.5,58.8z"/>
	<path class="st6" d="M42.3,62c-0.1,0-0.2,0-0.2-0.1c-0.1-0.1,0-0.3,0.1-0.3c2.6-1.6,4.6-3.4,6.1-5.2c0.1-0.1,0.2-0.1,0.4,0
		c0.1,0.1,0.1,0.2,0,0.4c-1.5,1.9-3.6,3.7-6.2,5.3C42.4,62,42.4,62,42.3,62z"/>
	<path class="st6" d="M37.5,64.6c-0.1,0-0.2-0.1-0.2-0.2c-0.1-0.1,0-0.3,0.1-0.3c0,0,1.1-0.5,2.7-1.3c0.1-0.1,0.3,0,0.3,0.1
		c0.1,0.1,0,0.3-0.1,0.3C38.8,64.1,37.6,64.6,37.5,64.6C37.6,64.6,37.6,64.6,37.5,64.6z"/>
	<g>
		<path class="st6" d="M49.4,47.2C49.4,47.2,49.4,47.2,49.4,47.2c-0.2,0-0.3-0.2-0.2-0.3c0.7-3.3,0.4-5.6-0.8-6.8
			c-0.1-0.1-0.1-0.3,0-0.4c0.1-0.1,0.3-0.1,0.4,0c1.3,1.4,1.6,3.8,0.9,7.3C49.6,47.1,49.5,47.2,49.4,47.2z"/>
	</g>
	<g>
		<path class="st6" d="M44.4,39.2c-0.1,0-0.2-0.1-0.2-0.2c0-0.1,0-0.3,0.2-0.3c0.1,0,1.3-0.4,2.7,0c0.1,0,0.2,0.2,0.2,0.3
			c0,0.1-0.2,0.2-0.3,0.2C45.7,38.8,44.5,39.2,44.4,39.2C44.5,39.2,44.4,39.2,44.4,39.2z"/>
	</g>
	<g>
		<path class="st6" d="M46.5,75.5c-0.2,0-0.5-0.2-0.5-0.4l-1.2-7.2c0-0.3,0.1-0.5,0.4-0.6c0.3,0,0.5,0.1,0.6,0.4l1.2,7.2
			C47,75.1,46.8,75.4,46.5,75.5C46.5,75.5,46.5,75.5,46.5,75.5z"/>
	</g>
</g>
</svg>
